<svg xmlns="http://www.w3.org/2000/svg" viewBox="0 0 382.002 382.002"><path d="M191.002 46.254c-11.482 0-21.146 7.581-23.822 17.787 7.273-1.792 15.206-2.709 23.821-2.709 8.616 0 16.549.917 23.822 2.71-2.676-10.206-12.34-17.788-23.821-17.788zM253.815 126.373c-7.649-31.248-25.448-47.318-54.791-49.716 2.681 16.896 12.783 30.356 30.153 40.074 9.192 5.143 18.469 8.081 24.638 9.642zM128.188 126.373c6.169-1.562 15.445-4.499 24.638-9.642 17.37-9.718 27.473-23.178 30.153-40.074-29.343 2.398-47.142 18.468-54.791 49.716z" fill="#ffffcd"/><path d="M176.318 161.48c0-4.143-3.357-7.5-7.5-7.5h-15.535a7.499 7.499 0 0 0-7.5 7.5c0 4.143 3.357 7.5 7.5 7.5h15.535c4.143 0 7.5-3.357 7.5-7.5zM228.72 153.98h-15.535a7.499 7.499 0 0 0-7.5 7.5c0 4.143 3.357 7.5 7.5 7.5h15.535a7.5 7.5 0 0 0 0-15z" fill="#ff92b1"/><path d="M319.569 311.878V187.814c0-42.457-11.322-88.113-30.286-122.131C265.328 22.713 231.342 0 191.001 0c-40.341 0-74.327 22.713-98.282 65.684-18.964 34.018-30.286 79.674-30.286 122.131v124.063c-18.528 16.022-18.097 33.439-17.748 37.246v25.378a7.5 7.5 0 0 0 7.5 7.5h277.633a7.5 7.5 0 0 0 7.5-7.5v-25.378c.348-3.811.779-21.225-17.749-37.246zM77.433 187.814c0-40.017 10.612-82.942 28.388-114.826C120.567 46.534 147.317 15 191.001 15s70.434 31.534 85.181 57.988c17.775 31.884 28.388 74.81 28.388 114.826v113.95c-4.689-2.489-10.034-4.847-16.141-6.997-50.567-17.806-60.702-26.442-60.248-51.342l.001-.137v-4.83c6.987-4.155 13.521-9.453 19.319-15.767 5.381-5.859 9.956-12.377 13.679-19.364 12.054-.057 28.925-6.498 33.61-30.782 2.559-13.26-3.354-21.421-9.739-24.637-3.974-1.999-8.463-2.374-12.822-1.308-3.577-38.788-17.547-64.467-41.669-76.782 0-.019.003-.037.003-.056 0-21.234-17.747-38.51-39.56-38.51-21.815 0-39.562 17.275-39.562 38.51 0 .02.003.037.003.057-24.093 12.3-38.058 37.932-41.656 76.639-4.171-.891-8.433-.46-12.228 1.45-6.386 3.216-12.298 11.377-9.739 24.637 4.606 23.878 20.991 30.501 32.997 30.773 3.724 6.99 8.301 13.512 13.684 19.374 5.798 6.314 12.332 11.611 19.319 15.767v4.83l.001.138c.456 24.899-9.68 33.536-60.248 51.341-6.106 2.15-11.452 4.508-16.141 6.997V187.814zm113.568 46.271c-16.315 0-32.882-7.851-45.452-21.539-15.331-16.694-22.973-39.77-20.965-63.311.2-2.353.451-4.627.727-6.861 5.51-1.021 19.85-4.26 34.412-12.315 14.273-7.896 24.785-18.2 31.277-30.479 6.492 12.279 17.004 22.584 31.277 30.479 14.563 8.056 28.902 11.294 34.412 12.315.276 2.234.527 4.509.728 6.861 2.008 23.541-5.634 46.617-20.965 63.311-12.569 13.688-29.136 21.539-45.451 21.539zm32.394 42.769c-1.145 12.507-15.232 22.425-32.393 22.425-17.162 0-31.249-9.918-32.394-22.425 6.739-8.168 10.11-18.149 10.216-31.492 7.235 2.433 14.711 3.723 22.177 3.723 7.467 0 14.941-1.29 22.177-3.723.106 13.342 3.478 23.323 10.217 31.492zM199.024 76.657c29.343 2.397 47.142 18.468 54.791 49.716-6.169-1.562-15.445-4.499-24.638-9.642-17.37-9.717-27.473-23.177-30.153-40.074zm-8.023-15.325c-8.615 0-16.548.917-23.821 2.709 2.677-10.206 12.341-17.787 23.822-17.787s21.144 7.582 23.821 17.788c-7.273-1.793-15.206-2.71-23.822-2.71zm-8.022 15.325c-2.681 16.896-12.783 30.356-30.153 40.074-9.192 5.143-18.469 8.08-24.638 9.642 7.649-31.248 25.448-47.318 54.791-49.716zM268 187.14a100.133 100.133 0 0 0 4.535-24.273c2.275-1.899 4.503-2.198 5.77-1.56 1.87.941 2.56 4.238 1.757 8.398-2.092 10.84-7.21 15.52-12.062 17.435zm-154.095-.301c-4.634-2.085-9.366-6.819-11.356-17.135-.803-4.159-.113-7.456 1.757-8.398 1.146-.578 3.086-.383 5.135 1.072a100.14 100.14 0 0 0 4.464 24.461zM265.14 367.002H115.308v-8.15c0-5.641 17.562-16.017 59.637-16.687.986 1.839 8.086 15.165 8.716 16.116a7.516 7.516 0 0 0 1.855 2.206c1.181 1.031 2.638 1.653 4.668 1.665h.082c2.032-.012 3.489-.635 4.67-1.667a7.556 7.556 0 0 0 1.851-2.2c.63-.953 7.73-14.278 8.718-16.12 42.073.67 59.637 11.046 59.637 16.687v8.15zm57.177-18.271v18.271H280.14v-8.15c0-19.566-30.26-31.721-78.972-31.721-4.59 0-6.278 3.123-8.417 7.076a658.682 658.682 0 0 0-2.527 4.738 739.729 739.729 0 0 0-2.531-4.742c-2.137-3.951-3.824-7.072-8.414-7.072-48.711 0-78.971 12.154-78.971 31.721v8.15H59.685v-18.271c0-.434-1.723-25.522 38.871-39.815 20.345-7.163 36.124-13.449 47.541-21.069 6.397 15.357 24.101 26.433 44.905 26.433 20.805 0 38.51-11.074 44.907-26.432 11.417 7.619 27.194 13.905 47.537 21.068 40.596 14.293 38.871 39.382 38.871 39.815z" fill="#ff92b1"/><path d="M205.248 190.292a7.499 7.499 0 0 0-7.5 7.5c0 1.23-2.562 3.49-6.746 3.49-4.186 0-6.747-2.26-6.747-3.49 0-4.143-3.357-7.5-7.5-7.5a7.499 7.499 0 0 0-7.5 7.5c0 10.195 9.756 18.49 21.747 18.49s21.746-8.295 21.746-18.49c0-4.143-3.357-7.5-7.5-7.5z" fill="#ff92b1"/></svg>