<svg xmlns="http://www.w3.org/2000/svg" viewBox="0 0 390.94 390.94"><path d="M232.106 232.102l1.304-32.275c-31.609-14.26-65.953-45.314-79.37-58.129l-.517-.492a7.5 7.5 0 0 1-1.413-9.137l-7.621-6.34-18.761 18.76 6.341 7.619a7.501 7.501 0 0 1 9.135 1.404l.466.488c12.814 13.408 43.859 47.727 58.158 79.406l32.278-1.304zM297.105 242.414l41.292 41.292-54.682 54.682-41.292-41.292z" fill="#dec78e"/><path d="M386.732 310.829l-83.191-83.189c-.991-.982-24.723-24.25-62.719-40.922l-.221-.098c-28.181-12.357-60.571-41.119-73.395-53.117.082-.736.107-1.479.074-2.219a14.43 14.43 0 0 0-5.174-10.412l-8.443-7.023a14.431 14.431 0 0 0-9.216-3.346c-3.836 0-7.45 1.502-10.175 4.229l-19.541 19.541a14.326 14.326 0 0 0-.887 19.387l7.028 8.445a14.46 14.46 0 0 0 10.426 5.178 14.45 14.45 0 0 0 2.214-.074c12.025 12.848 40.766 45.219 53.15 73.482 16.643 37.965 40.005 61.857 41.024 62.889l83.149 83.152a14.312 14.312 0 0 0 10.178 4.209c3.845 0 7.458-1.494 10.178-4.213l55.535-55.535c5.611-5.609 5.617-14.739.006-20.364zm-89.628-68.413l41.293 41.293-54.683 54.68-41.291-41.289 54.681-54.684zm-155.9-88.904a7.501 7.501 0 0 0-9.135-1.404l-6.341-7.619 18.761-18.76 7.621 6.34a7.5 7.5 0 0 0 1.413 9.137l.517.492c13.417 12.814 47.761 43.869 79.37 58.129l-1.304 32.275-32.278 1.305c-14.299-31.68-45.344-65.998-58.158-79.406l-.466-.489zm65.685 94.621l32.735-1.322a7.5 7.5 0 0 0 7.191-7.191l1.323-32.738c17.551 9.207 30.625 19.115 37.995 25.293l-53.947 53.947c-6.194-7.401-16.109-20.491-25.297-37.989zm114.125 127.561l-16.156-16.158a2.968 2.968 0 0 0-.098-.096l-.117-.121-10.32-10.322 54.683-54.68 26.692 26.691-54.684 54.686zM114.024 103.413L76.181 65.569a7.5 7.5 0 0 0-10.607 10.607l37.844 37.844c1.465 1.465 3.385 2.197 5.304 2.197s3.839-.732 5.304-2.197a7.502 7.502 0 0 0-.002-10.607zM36.527 64.262a7.487 7.487 0 0 0 5.304-2.195l20.237-20.234a7.501 7.501 0 0 0 .385-10.193L37.504 2.612A7.5 7.5 0 0 0 32.099.005a7.554 7.554 0 0 0-5.586 2.193L2.199 26.512a7.498 7.498 0 0 0 .415 10.99L31.64 62.45a7.475 7.475 0 0 0 4.887 1.812zM31.4 18.522l15.143 17.621-10.4 10.399-17.618-15.143L31.4 18.522zM127.318 96.987a7.5 7.5 0 0 0 5.425-12.678c-11.599-12.154-11.148-31.48 1.005-43.08a7.501 7.501 0 0 0-10.358-10.852c-18.135 17.311-18.808 46.15-1.499 64.287a7.478 7.478 0 0 0 5.427 2.323zM30.382 123.387a7.5 7.5 0 0 0 10.85 10.358c11.602-12.156 30.929-12.604 43.08-1.006a7.498 7.498 0 0 0 10.604-.246 7.5 7.5 0 0 0-.246-10.603c-18.136-17.311-46.976-16.64-64.288 1.497z" fill="#ff92b1"/></svg>