<svg xmlns="http://www.w3.org/2000/svg" viewBox="0 0 375.457 375.457"><path d="M106.8 360.457l-5.447-9.652a7.501 7.501 0 0 1 1.426-9.182l13.953-12.959H95.413a7.5 7.5 0 0 1-6.857-10.539l23.916-53.949c-15.031 6.396-37.84 16.037-60.875 25.527-27.875 11.482-32.578 24.705-32.578 50.002v20.752h50.068v-13.711c0-4.142 3.357-7.5 7.5-7.5s7.5 3.358 7.5 7.5v13.711H106.8zM323.86 289.703c-23.037-9.49-45.848-19.131-60.879-25.527l23.914 53.949a7.502 7.502 0 0 1-.568 7.129 7.503 7.503 0 0 1-6.287 3.41h-21.314l13.951 12.959a7.501 7.501 0 0 1 1.428 9.182l-5.449 9.652h22.713v-13.711c0-4.142 3.357-7.5 7.5-7.5s7.5 3.358 7.5 7.5v13.711h50.07v-20.752c0-25.297-4.704-38.519-32.579-50.002zM139.53 235.291v30.295l31.069-16.67zM235.927 235.291l-31.072 13.625 31.072 16.67z" fill="#ffffcd"/><path d="M329.573 275.834c-39.229-16.16-78.631-33.096-78.647-33.102v-18.92a7.502 7.502 0 0 0-10.511-6.869l-12.209 5.355v-16.131c15.186-10.279 27.766-26.307 36.303-46.338a20.4 20.4 0 0 0 2.148.125c11.088 0 21.631-9.096 25.381-22.797 4.344-15.9-2.35-31.115-15.236-34.635-.055-.016-.108-.021-.162-.035 1.406-34.742-5.955-61.037-21.924-78.229C239.761 8.162 217.222 0 187.728 0c-29.496 0-52.033 8.162-66.988 24.26-15.969 17.191-23.33 43.486-21.926 78.229-.053.014-.106.02-.16.035-12.887 3.52-19.58 18.734-15.234 34.637 3.748 13.701 14.289 22.795 25.379 22.795.715 0 1.432-.049 2.148-.125 8.537 20.031 21.117 36.059 36.303 46.338v16.129l-12.207-5.354a7.498 7.498 0 0 0-10.511 6.869v18.92c-.149.053-39.416 16.939-78.648 33.102-35.014 14.424-41.863 34.342-41.863 63.871v28.252c0 4.143 3.357 7.5 7.5 7.5h352.42c4.143 0 7.5-3.357 7.5-7.5v-28.252c-.002-29.53-6.854-49.448-41.868-63.872zm-54.209-157.236c2.566 2.713 3.932 8.277 2.203 14.605-1.418 5.184-4.361 8.875-7.353 10.609 2.318-7.966 4.06-16.398 5.15-25.214zM97.888 133.205c-1.729-6.328-.363-11.893 2.203-14.605 1.09 8.816 2.83 17.248 5.15 25.213-2.992-1.735-5.935-5.426-7.353-10.608zm138.039 102.086v30.295l-31.072-16.67 31.072-13.625zm-73.678-21.219c8.045 3.133 16.588 4.813 25.479 4.813 8.891 0 17.434-1.68 25.479-4.813v14.803l-25.479 11.174-25.479-11.174v-14.803zM187.728 15c25.51 0 43.828 6.369 55.998 19.471 7.607 8.188 12.824 19.215 15.635 32.967-29.766.635-57.391-6.525-82.125-21.348-16.688-10.002-26.664-20.484-29.324-23.455C158.519 17.518 171.702 15 187.728 15zm-56 19.471c1.143-1.23 2.359-2.381 3.611-3.494.078.109.152.221.238.324.309.379 5.266 6.381 14.744 14.158-11.795 21.957-27.875 26.818-35.26 27.875 2.44-16.525 8.002-29.537 16.667-38.863zm-17.528 74.42c-.529-7.193-.682-13.977-.467-20.355 8.785-.602 32.277-5.02 48.75-34.051a163.423 163.423 0 0 0 6.447 4.113c18.422 11.147 48.021 23.885 87.055 23.885 1.781 0 3.588-.035 5.408-.09.609 8.109.564 16.947-.141 26.498-4.057 55.045-34.979 94.994-73.525 94.994-38.546 0-69.468-39.949-73.527-94.994zm25.33 126.4l31.068 13.625-31.068 16.67v-30.295zm-38.177 115.514l5.447 9.652H84.087v-13.711c0-4.142-3.357-7.5-7.5-7.5s-7.5 3.358-7.5 7.5v13.711H19.019v-20.752c0-25.297 4.703-38.52 32.578-50.002 23.035-9.49 45.844-19.131 60.875-25.527l-23.916 53.949a7.502 7.502 0 0 0 6.857 10.539h21.318l-13.953 12.959a7.5 7.5 0 0 0-1.425 9.182zm22.671 9.652l-6.701-11.871 23.607-21.926a7.502 7.502 0 0 0-5.103-12.996H106.94l17.59-39.676v4.133a7.5 7.5 0 0 0 11.045 6.608l.775-.414 39.096 76.143h-51.422zm25.547-83.236l38.154-20.471 38.158 20.471-38.156 74.316-38.156-74.316zm101.86 83.236h-51.422l39.096-76.143.775.416a7.507 7.507 0 0 0 7.397-.173 7.5 7.5 0 0 0 3.65-6.436v-4.127l17.584 39.67H239.63a7.502 7.502 0 0 0-5.106 12.996l23.607 21.926-6.7 11.871zm105.008 0h-50.07v-13.711c0-4.142-3.357-7.5-7.5-7.5s-7.5 3.358-7.5 7.5v13.711h-22.713l5.449-9.652a7.502 7.502 0 0 0-1.428-9.182l-13.951-12.959h21.314a7.497 7.497 0 0 0 6.855-10.539l-23.914-53.949c15.031 6.396 37.842 16.037 60.879 25.527 27.875 11.482 32.578 24.705 32.578 50.002v20.752z" fill="#ff92b1"/><path d="M166.853 127.992h-24.059c-4.143 0-7.5-3.357-7.5-7.5s3.357-7.5 7.5-7.5h24.059c4.143 0 7.5 3.357 7.5 7.5s-3.358 7.5-7.5 7.5zM232.661 127.992h-24.059c-4.143 0-7.5-3.357-7.5-7.5s3.357-7.5 7.5-7.5h24.059c4.143 0 7.5 3.357 7.5 7.5s-3.357 7.5-7.5 7.5zM187.728 176.445c-11.99 0-21.746-8.295-21.746-18.49 0-4.143 3.357-7.5 7.5-7.5a7.5 7.5 0 0 1 7.5 7.5c0 1.23 2.56 3.49 6.746 3.49s6.746-2.26 6.746-3.49c0-4.143 3.357-7.5 7.5-7.5s7.5 3.357 7.5 7.5c0 10.195-9.754 18.49-21.746 18.49z" fill="#ff92b1"/></svg>