<svg xmlns="http://www.w3.org/2000/svg" viewBox="0 0 357.788 357.788"><path d="M119.246 288.028c-2.176-8.532-9.412-14.726-17.205-14.726-5.912 0-11.371 3.639-15.375 10.245a7.499 7.499 0 0 1-6.414 3.613h-.002a7.499 7.499 0 0 1-6.414-3.615c-4-6.605-9.457-10.243-15.365-10.243-7.789 0-15.021 6.192-17.197 14.726-1.658 6.506-3.568 29.198 38.978 53.665 42.558-24.468 40.652-47.159 38.994-53.665zM316.517 251.281c-2.176-8.532-9.412-14.726-17.205-14.726-5.912 0-11.371 3.639-15.375 10.245a7.499 7.499 0 0 1-6.414 3.613h-.002a7.499 7.499 0 0 1-6.414-3.615c-4-6.605-9.457-10.243-15.365-10.243-7.789 0-15.021 6.192-17.197 14.726-1.658 6.506-3.568 29.198 38.979 53.665 42.558-24.468 40.652-47.159 38.993-53.665z" fill="#dec78e"/><path d="M332.232 256.22V7.503c0-.024 0-1.58-.648-3.052-1.67-3.79-6.117-5.483-9.904-3.8L124.408 88.512a7.502 7.502 0 0 0-4.447 7.01v168.511c-5.213-3.644-11.396-5.73-17.92-5.73-8.066 0-15.658 3.306-21.789 9.308-6.127-6.002-13.715-9.308-21.781-9.308-14.775 0-27.824 10.699-31.732 26.018-2.037 7.988-2.471 20.69 7.029 35.841 8.42 13.427 22.85 25.777 42.893 36.71a7.5 7.5 0 0 0 7.182 0c20.047-10.933 34.482-23.283 42.904-36.708 6.58-10.49 8.394-19.806 8.215-27.196V178.343l182.27-80.993v129.936c-5.213-3.645-11.397-5.73-17.92-5.73-8.066 0-15.658 3.306-21.789 9.308-6.127-6.002-13.715-9.308-21.781-9.308-14.775 0-27.824 10.699-31.733 26.019-2.037 7.988-2.471 20.69 7.029 35.841 8.42 13.427 22.85 25.777 42.893 36.71a7.5 7.5 0 0 0 7.182 0c20.047-10.933 34.482-23.283 42.904-36.708 6.58-10.493 8.395-19.807 8.215-27.198zM41.273 288.028c2.176-8.533 9.408-14.726 17.197-14.726 5.908 0 11.365 3.638 15.365 10.243a7.499 7.499 0 0 0 6.414 3.615h.002a7.499 7.499 0 0 0 6.414-3.613c4.004-6.606 9.463-10.245 15.375-10.245 7.793 0 15.029 6.193 17.205 14.726 1.658 6.506 3.564 29.197-38.994 53.665-42.546-24.467-40.636-47.159-38.978-53.665zm197.272-36.747c2.176-8.533 9.408-14.726 17.197-14.726 5.908 0 11.365 3.638 15.365 10.243a7.499 7.499 0 0 0 6.414 3.615h.002a7.499 7.499 0 0 0 6.414-3.613c4.004-6.606 9.463-10.245 15.375-10.245 7.793 0 15.029 6.193 17.205 14.726 1.658 6.506 3.564 29.197-38.994 53.665-42.547-24.467-40.637-47.159-38.978-53.665zM134.961 161.93v-61.696l182.272-81.181v61.883L134.961 161.93z" fill="#ff92b1"/></svg>