<svg xmlns="http://www.w3.org/2000/svg" viewBox="0 0 423.233 423.233"><path d="M211.368 119.278c58.282 0 105.761 44.287 106.392 98.949a44.92 44.92 0 0 1 8.871 6.881 46.075 46.075 0 0 1 7.492-6.269C333.842 155.471 278.887 104 211.369 104c-67.498 0-122.442 51.438-122.758 114.779a45.286 45.286 0 0 1 7.952 6.329 45.79 45.79 0 0 1 8.41-6.881c.631-54.662 48.112-98.949 106.395-98.949z" fill="#ffffcd"/><path d="M137.406 220.816c-13.554 0-25.85 6.979-34.621 19.648a7.499 7.499 0 0 1-12.333-.002c-8.771-12.67-21.065-19.647-34.62-19.647-18.991 0-35.751 13.167-39.85 31.307-7.058 31.236 23.039 66.478 80.638 94.66 57.597-28.179 87.691-63.422 80.633-94.66-4.101-18.139-20.858-31.306-39.847-31.306zM407.251 252.123c-4.1-18.14-20.856-31.307-39.846-31.307-13.554 0-25.85 6.979-34.621 19.648a7.499 7.499 0 0 1-12.333-.002c-8.77-12.67-21.065-19.647-34.62-19.647-18.991 0-35.751 13.167-39.851 31.307-7.058 31.236 23.039 66.478 80.638 94.66 57.597-28.179 87.692-63.422 80.633-94.659z" fill="#ffffcd"/><path d="M421.882 248.816c-4.754-21.039-21.831-37.206-42.645-41.729-5.203-38.362-23.345-73.692-51.85-100.49-31.535-29.647-72.75-45.976-116.054-45.976-43.118 0-84.204 16.206-115.69 45.632-28.73 26.852-47.032 62.387-52.235 100.974-20.548 4.697-37.35 20.75-42.059 41.59-2.83 12.526-2.59 32.352 14.629 55.663 15.524 21.018 41.57 40.33 77.415 57.402a7.521 7.521 0 0 0 3.225.728 7.521 7.521 0 0 0 3.225-.728c35.844-17.07 61.889-36.383 77.412-57.401 17.218-23.313 17.458-43.138 14.627-55.665-4.557-20.163-20.432-35.849-40.068-41.101 7.495-26.102 31.299-44.602 59.534-44.602 27.841 0 51.97 18.883 59.523 44.759-19.383 5.396-35.008 20.97-39.52 40.944-2.83 12.526-2.59 32.352 14.629 55.663 15.524 21.018 41.57 40.33 77.415 57.402a7.521 7.521 0 0 0 3.225.728 7.525 7.525 0 0 0 3.225-.728c35.844-17.07 61.889-36.383 77.412-57.401 17.216-23.311 17.456-43.136 14.625-55.664zm-175.901 3.307c4.1-18.14 20.859-31.307 39.851-31.307 13.555 0 25.85 6.978 34.62 19.647a7.501 7.501 0 0 0 12.333.002c8.772-12.67 21.067-19.648 34.621-19.648 18.989 0 35.746 13.167 39.846 31.307 7.059 31.237-23.036 66.48-80.633 94.66-57.599-28.183-87.696-63.425-80.638-94.661zm-149.363 94.66c-57.599-28.181-87.695-63.423-80.638-94.66 4.1-18.14 20.859-31.307 39.85-31.307 13.555 0 25.85 6.978 34.62 19.647a7.501 7.501 0 0 0 12.333.002c8.771-12.67 21.067-19.648 34.621-19.648 18.989 0 35.746 13.167 39.846 31.307 7.06 31.236-23.035 66.479-80.632 94.659zm8.395-130.129a61.702 61.702 0 0 0-8.395 7.563 61.813 61.813 0 0 0-7.974-7.238C89.982 154.468 144.513 104 211.369 104c66.99 0 121.604 50.673 122.728 113.359a62.026 62.026 0 0 0-7.478 6.857 61.491 61.491 0 0 0-8.907-7.952c-1.729-53.755-48.761-96.986-106.343-96.986-57.723 0-104.842 43.442-106.356 97.376zm106.32-141.032c76.42 0 140.92 56.209 152.575 130.316a53.091 53.091 0 0 0-15.196 3.225C343.212 142.033 283.716 89 211.369 89c-72.285 0-131.733 52.944-137.322 119.991a53.125 53.125 0 0 0-15.275-3.096c11.692-74.02 76.332-130.273 152.561-130.273zm52.3 92.966c-14.267-13.203-32.835-20.474-52.285-20.474-19.357 0-37.862 7.211-52.104 20.305a76.79 76.79 0 0 0-22.433 37.413c-5.571.06-10.967.942-16.1 2.62 5.758-41.779 44.213-74.174 90.656-74.174 46.382 0 84.792 32.314 90.625 74.014a53.581 53.581 0 0 0-16.122-2.475 76.748 76.748 0 0 0-22.237-37.229z" fill="#ff92b1"/></svg>