<svg xmlns="http://www.w3.org/2000/svg" viewBox="0 0 422.5 422.5"><path fill="#ffffcd" d="M179.028 134.748l-37.632-22.01-37.824 22.01zM185.591 375.971c-13.489 7.969-28.777 12.154-44.629 12.154-48.502 0-87.961-39.461-87.961-87.963 0-48.502 39.459-87.959 87.961-87.959 48.502 0 87.961 39.457 87.961 87.959a88.101 88.101 0 0 1-9.055 38.885 73.697 73.697 0 0 0 13.453 15.807c9.808-16.52 14.977-35.287 14.977-54.691 0-59.186-48.15-107.334-107.336-107.334S33.626 240.977 33.626 300.163s48.15 107.338 107.336 107.338c20.868 0 40.783-5.898 58.085-17.088a123.51 123.51 0 0 1-13.456-14.442z"/><path d="M281.538 177.828c-25.486 0-49.659 7.705-70.3 22.258-14.168-9.979-30.54-17.031-48.229-20.264l47.805-31.299a7.5 7.5 0 0 0 2.921-8.891l-14.211-38.193a7.499 7.499 0 0 0-7.029-4.885H89.986a7.498 7.498 0 0 0-7.029 4.885l-14.213 38.193a7.501 7.501 0 0 0 2.921 8.891l47.68 31.217C62.163 189.977 18.626 240.08 18.626 300.162c0 67.457 54.88 122.338 122.336 122.338 25.456 0 49.681-7.688 70.332-22.246 19.894 14.004 44.121 22.246 70.244 22.246 67.456 0 122.336-54.881 122.336-122.338 0-67.455-54.88-122.334-122.336-122.334zM33.626 300.162c0-59.186 48.15-107.334 107.336-107.334s107.336 48.148 107.336 107.334c0 19.404-5.169 38.172-14.977 54.691a73.669 73.669 0 0 1-13.453-15.807 88.101 88.101 0 0 0 9.055-38.885c0-48.502-39.459-87.959-87.961-87.959-48.502 0-87.961 39.457-87.961 87.959s39.459 87.963 87.961 87.963c15.852 0 31.14-4.186 44.629-12.154a123.42 123.42 0 0 0 13.456 14.441c-17.302 11.189-37.217 17.088-58.085 17.088-59.186.001-107.336-48.151-107.336-107.337zm107.336 72.963c-40.23 0-72.961-32.732-72.961-72.963 0-40.23 32.73-72.959 72.961-72.959a72.498 72.498 0 0 1 35.974 9.523c-11.614 19.092-17.733 40.853-17.733 63.436 0 23.217 6.501 44.941 17.777 63.455-10.939 6.231-23.255 9.508-36.018 9.508zm70.292-92.525a72.709 72.709 0 0 1 2.669 19.563c0 6.629-.925 13.205-2.683 19.541a72.715 72.715 0 0 1-2.663-19.541 73.13 73.13 0 0 1 2.677-19.563zm34.266-43.883c10.94-6.234 23.256-9.514 36.019-9.514 40.23 0 72.961 32.728 72.961 72.959 0 40.23-32.73 72.963-72.961 72.963a72.504 72.504 0 0 1-35.976-9.525c11.61-19.098 17.735-40.893 17.735-63.438 0-23.215-6.504-44.935-17.778-63.445zm-66.492-101.969h-75.456l37.824-22.01 37.632 22.01zm8.254-23.193l5.063 13.606-23.262-13.606h18.199zm-92.084 0h18.407L90.11 125.227l5.088-13.672zm5.723 38.193h80.637l-40.318 26.398-40.319-26.398zM281.538 407.5c-59.186 0-107.336-48.152-107.336-107.338 0-19.436 5.17-38.174 14.982-54.686a73.572 73.572 0 0 1 13.447 15.803 88.106 88.106 0 0 0-9.055 38.883c0 48.502 39.459 87.963 87.961 87.963 48.502 0 87.961-39.461 87.961-87.963 0-48.502-39.459-87.959-87.961-87.959-15.853 0-31.142 4.186-44.633 12.154a123.52 123.52 0 0 0-13.447-14.434c17.293-11.191 37.182-17.096 58.08-17.096 59.186 0 107.336 48.148 107.336 107.334.001 59.187-48.149 107.339-107.335 107.339zM141.238 49.291c4.143 0 7.5-3.357 7.5-7.5V7.5c0-4.143-3.357-7.5-7.5-7.5a7.499 7.499 0 0 0-7.5 7.5v34.291a7.5 7.5 0 0 0 7.5 7.5zM57.964 80.623a7.476 7.476 0 0 0 5.304 2.197 7.474 7.474 0 0 0 5.303-2.197 7.497 7.497 0 0 0 .001-10.605L44.325 45.77a7.5 7.5 0 0 0-10.606 0 7.497 7.497 0 0 0-.001 10.605l24.246 24.248zM219.211 82.82a7.478 7.478 0 0 0 5.304-2.197l24.246-24.248a7.497 7.497 0 0 0-.001-10.605 7.5 7.5 0 0 0-10.606 0l-24.246 24.248a7.497 7.497 0 0 0 .001 10.605 7.47 7.47 0 0 0 5.302 2.197z" fill="#ff92b1"/></svg>