<svg id="Layer_1" data-name="Layer 1" xmlns="http://www.w3.org/2000/svg" viewBox="0 0 474.94 284.09"><defs><style>.cls-1,.cls-2,.cls-3,.cls-4,.cls-5{fill:#fff}.cls-2{opacity:.6}.cls-3{opacity:.8}.cls-4{opacity:.9}.cls-5{opacity:.7}</style></defs><title>Zola_Logo_ZOLA &amp;amp; WEDDING REGISTRY_White</title><path class="cls-1" d="M234.86 7.31l-.18-.17zM85.9 202.22v9.95a3.84 3.84 0 0 1-3.9 3.74l-75.25-.05a3.77 3.77 0 0 1-3.75-3.8v-11.28a3.86 3.86 0 0 1 1.07-2.48l53.8-60H3.74A3.72 3.72 0 0 1 0 134.59l.07-10.18a3.77 3.77 0 0 1 3.8-3.74l75.25.1a3.77 3.77 0 0 1 3.74 3.8v10.73a4 4 0 0 1-1 2.85l-53.7 60.27h54a3.77 3.77 0 0 1 3.74 3.8M176.07 217.07a49 49 0 1 1 49.35-48.63 49.05 49.05 0 0 1-49.35 48.63m.58-79.56A30.56 30.56 0 1 0 207 168.3a30.6 30.6 0 0 0-30.34-30.79M336.42 200.68v12.67c0 1.37-1.52 2.55-3.25 2.54h-52.65a2.48 2.48 0 0 1-2.47-2.5v-90.2c0-1.37 1.79-2.48 3.17-2.47h12.75a2.48 2.48 0 0 1 2.47 2.5v75h36.86c1.73 0 3.13 1.13 3.12 2.51M472.19 215.88h-13.72a2.73 2.73 0 0 1-2.48-1.64L447.8 195h-44.65l-8.64 19.26a2.73 2.73 0 0 1-2.51 1.6h-13.89a2.73 2.73 0 0 1-2.46-3.85l40.88-89.62a2.67 2.67 0 0 1 2.33-1.69h14.33a2.64 2.64 0 0 1 2.31 1.83l39.22 89.52a2.73 2.73 0 0 1-2.52 3.82M440 177.36L425.84 145l-14.68 32.38zM275 74.21zM274.93 74.21z"/><path class="cls-2" d="M308.34 2.57A27.21 27.21 0 0 0 296.74 0h-.06a26.71 26.71 0 0 0-15.86 5.31 25.74 25.74 0 0 0-7.91 9.69c-9.67 20.73 1.91 58.82 2 59.17.19-.08 2.43-1 5.87-2.75 10.82-5.37 33.45-18.1 40.75-33.73 6.16-13.11.25-28.86-13.19-35.12z"/><path class="cls-3" d="M243.44 26v-.76-.49c0-.16 0-.45-.06-.68s0-.34-.06-.5-.06-.46-.1-.69 0-.31-.07-.47c-.06-.36-.13-.71-.21-1.07 0-.16-.08-.32-.11-.48s-.1-.43-.16-.64-.1-.36-.15-.55l-.17-.56-.18-.56-.19-.54c-.07-.19-.13-.37-.2-.56s-.15-.37-.22-.55-.28-.66-.43-1l-.22-.48-.29-.58-.23-.45-.32-.58-.25-.42-.35-.58-.24-.36q-.37-.57-.77-1.13l-.22-.31-.43-.56-.29-.36-.52-.53-.31-.35-.47-.52-.3-.31q-.52-.54-1.08-1.06l-.19-.17c-.46.42-.89.85-1.32 1.29l-.16.16.16-.16c.42-.44.86-.87 1.32-1.29a27.37 27.37 0 0 0-6.86-4.57c-.63-.29-1.27-.55-1.91-.8A27.12 27.12 0 0 0 216.21 0h-.06a26.7 26.7 0 0 0-15.86 5.31 25.66 25.66 0 0 0-5.88 6.16 26 26 0 0 1 2 3.58 36.62 36.62 0 0 1 2.48 7.48 56.76 56.76 0 0 1 1.17 8.32 56.76 56.76 0 0 0-1.17-8.32 36.62 36.62 0 0 0-2.45-7.53 26 26 0 0 0-2-3.58 25.81 25.81 0 0 0-2 3.58c-2.87 6.16-3.87 13.86-3.85 21.64v.1c.07 18.36 5.79 37.17 5.87 37.42.2-.08 2.44-1 5.87-2.75a144 144 0 0 0 25.61-16 72.73 72.73 0 0 0 8.78-8.29l-.91-1.07.91 1.07.93-1.09.13-.16.72-.89.22-.28.62-.82.21-.28q.37-.51.73-1v-.06c.25-.36.48-.72.71-1.09l.2-.32.47-.78.22-.39.42-.76.19-.36c.19-.37.38-.74.55-1.11s.34-.76.5-1.14l.14-.36c.1-.27.21-.53.3-.8l.14-.41q.13-.39.25-.79l.12-.39q.14-.49.26-1v-.18c.09-.39.17-.78.24-1.16 0-.12 0-.24.06-.37 0-.27.09-.54.13-.81s0-.29.06-.44.06-.51.08-.76 0-.29 0-.44v-.84-.34-1.14c.13-.13.12-.26.12-.36zm-48.93 48l.19-.67.25-.89-.25.89zm.91-3.29c.13-.48.26-1 .4-1.56-.15.5-.28 1.02-.41 1.5zm1.09-4.44c-.15.67-.31 1.31-.45 1.9.14-.65.29-1.29.44-1.96zm32.92-52.52l-.06.1-.12.21.12-.21zM226.06 24c0-.17 0-.35.06-.52 0 .17 0 .35-.06.52s0 .44-.06.66v.26-.26c0-.18 0-.4.06-.66zm1.77 12.55l-.1-.26.1.26c.16.38.32.76.49 1.14-.17-.34-.32-.69-.49-1.1zm2.17 4.29l.18.3.07.12-.07-.12zm1.12 1.75c.23.34.48.69.73 1l.09.13-.09-.12c-.25-.33-.49-.67-.73-1.01z"/><path class="cls-4" d="M196.44 15a26 26 0 0 0-2-3.58 25.69 25.69 0 0 0-5.88-6.16A26.91 26.91 0 0 0 161 2.57c-13.44 6.27-19.35 22-13.22 35.16 7.29 15.63 29.92 28.36 40.74 33.73 3.43 1.7 5.67 2.66 5.87 2.75.08-.25 5.82-19.15 5.87-37.55.05-7.8-.95-15.47-3.82-21.66z"/><path class="cls-5" d="M277 15a25.74 25.74 0 0 0-7.91-9.74 26.87 26.87 0 0 0-25.61-3.53c-.64.24-1.28.5-1.91.8a27.37 27.37 0 0 0-6.86 4.57l.18.17-.19-.17c-.46.42-.89.85-1.32 1.29l-.23.24-.51.56-.27.31-.47.57-.25.32-.46.6-.14.2q-.46.64-.89 1.3l-.19.29-.37.61-.22.38-.33.6-.21.41-.3.61-.19.42q-.25.55-.48 1.11l-.19.47c-.07.19-.14.39-.21.58l-.18.51-.19.58-.16.54-.16.57-.15.61c-.05.2-.08.34-.12.51-.08.35-.14.71-.21 1.06 0 .16-.05.33-.08.49s-.07.44-.1.66 0 .35-.06.52 0 .44-.06.66 0 .34 0 .51V29.12c0 .16 0 .49.08.74s0 .3.06.46.08.53.12.8l.06.38c.07.39.15.77.24 1.16l.05.2.25 1 .12.4q.12.39.25.78l.14.42q.14.4.3.79l.14.37c.16.38.32.76.49 1.14s.36.75.55 1.12l.19.35.43.78.22.38.48.79.19.31c.23.36.47.73.71 1.09v.05c.23.34.48.69.73 1l.22.29.6.79.24.31.68.85.17.21.91 1.07a72.61 72.61 0 0 0 8.78 8.3 144 144 0 0 0 25.61 16c3.43 1.7 5.67 2.67 5.87 2.75.07-.24 5.78-19 5.87-37.37v-.32c.08-7.72-.92-15.35-3.75-21.51z"/><path class="cls-1" d="M254 282.62a.86.86 0 0 1-.69 1.37h-2.73a.87.87 0 0 1-.69-.35l-3.4-4.6h-4.79v4.35a.55.55 0 0 1-.55.55h-2.82a.55.55 0 0 1-.55-.55v-20a.55.55 0 0 1 .55-.55h7.9A8.4 8.4 0 0 1 252 265a8.92 8.92 0 0 1 0 11.9 7.12 7.12 0 0 1-1.43 1.05zm-12.31-7.49h4.67a4.54 4.54 0 0 0 2.93-1.07 5.12 5.12 0 0 0 0-6.2 4.58 4.58 0 0 0-3-1.07h-4.64zM275.81 266.75v4.57h8.27a.55.55 0 0 1 .55.55v2.82a.55.55 0 0 1-.55.55h-8.27V280h10.72a.55.55 0 0 1 .55.55v2.82a.55.55 0 0 1-.55.55h-14.09a.55.55 0 0 1-.55-.55v-20a.55.55 0 0 1 .55-.55h1.74a.54.54 0 0 1 .22 0h12.13a.55.55 0 0 1 .55.55v2.82a.55.55 0 0 1-.55.55zM320.71 273v10.1c0 .45-.25.82-.55.82h-2.82c-.28 0-.51-.32-.54-.73a10.8 10.8 0 0 1-15-11.17 10.8 10.8 0 0 1 18.2-6.52 1.05 1.05 0 0 1 0 1.5l-1.27 1.27a1.05 1.05 0 0 1-1.47 0 6.89 6.89 0 1 0-.49 10.4v-2.27h-4.35a.55.55 0 0 1-.55-.55V273a.55.55 0 0 1 .55-.55h7.72a.55.55 0 0 1 .57.55zM342.45 283.94h-2.82a.55.55 0 0 1-.55-.55v-20a.55.55 0 0 1 .55-.55h2.82a.55.55 0 0 1 .55.55v20a.55.55 0 0 1-.55.55zM366 267.92a1.51 1.51 0 0 0-.08 1.68c.33.81 1.59 1.31 2.66 1.62l1.65.46h.17c1.8.52 4.22 1.51 5.19 3.92a5.41 5.41 0 0 1-.64 5.56 8.17 8.17 0 0 1-6.39 2.7 10.09 10.09 0 0 1-1.45-.1 7.33 7.33 0 0 1-5.41-3.31.85.85 0 0 1 .41-1.24l2.12-.84a.84.84 0 0 1 1 .27 3.92 3.92 0 0 0 2.48 1.24c1.69.25 3.5-.24 4.2-1.14a1.51 1.51 0 0 0 .08-1.68c-.33-.82-1.6-1.31-2.67-1.62l-1.56-.42h-.06c-1.82-.51-4.39-1.48-5.39-4a5.41 5.41 0 0 1 .64-5.56c1.58-2 4.73-3 7.84-2.59a7.32 7.32 0 0 1 5.44 3.34.82.82 0 0 1-.39 1.19l-2.18.86a.8.8 0 0 1-.94-.26 3.9 3.9 0 0 0-2.49-1.26c-1.72-.21-3.52.26-4.23 1.18zM408 263.47v2.82a.55.55 0 0 1-.55.55h-6.06v16.65a.55.55 0 0 1-.55.55h-2.82a.55.55 0 0 1-.55-.55v-16.65h-6.06a.55.55 0 0 1-.55-.55v-2.82a.55.55 0 0 1 .55-.55h16a.55.55 0 0 1 .59.55zM440.49 282.62a.86.86 0 0 1-.69 1.37h-2.73a.86.86 0 0 1-.69-.35L433 279h-4.79v4.35a.55.55 0 0 1-.55.55h-2.86a.55.55 0 0 1-.55-.55v-20a.55.55 0 0 1 .55-.55h7.9a8.41 8.41 0 0 1 5.76 2.13 8.92 8.92 0 0 1 0 11.9A7.15 7.15 0 0 1 437 278zm-12.31-7.49h4.67a4.55 4.55 0 0 0 2.93-1.07 5.12 5.12 0 0 0 0-6.2 4.58 4.58 0 0 0-3-1.07h-4.64zM474.53 264.2l-8 11.92-.4.6v6.77a.55.55 0 0 1-.55.55h-2.78a.55.55 0 0 1-.55-.55v-6.77l-.4-.6-8-11.92a.82.82 0 0 1 .68-1.27h2.75a.81.81 0 0 1 .68.36l6.22 9.31 6.22-9.31a.82.82 0 0 1 .68-.36h2.75a.82.82 0 0 1 .7 1.27zM30.59 263.94l-4.38 13.45-2 6a.69.69 0 0 1-.66.48h-2.7a.69.69 0 0 1-.66-.48l-4.88-14.86-1.9 5.83-2.94 9a.71.71 0 0 1-.67.49H7.17a.71.71 0 0 1-.67-.49L4.71 278l-4.6-14a.71.71 0 0 1 .67-1h2.63a.71.71 0 0 1 .67.49l1.87 5.68 1.88 5.74.67 2 4.38-13.46a.71.71 0 0 1 .66-.48h3.61a.69.69 0 0 1 .65.48L22.23 277l.66-2 3.73-11.46a.69.69 0 0 1 .66-.48h2.65a.69.69 0 0 1 .66.88zM47.07 266.78v4.55h8.24a.55.55 0 0 1 .55.55v2.81a.55.55 0 0 1-.55.55h-8.24V280h10.68a.55.55 0 0 1 .55.55v2.81a.55.55 0 0 1-.55.55h-14a.55.55 0 0 1-.55-.55v-19.9a.55.55 0 0 1 .55-.55h1.73a.53.53 0 0 1 .22 0h12.05a.55.55 0 0 1 .55.55v2.81a.55.55 0 0 1-.55.55zM90.81 273.52a9.18 9.18 0 0 1-3.15 7.3c-3 2.62-7.64 3.14-10.82 3.14-.67 0-1.28 0-1.8-.05h-2.91a.55.55 0 0 1-.55-.55v-19.9a.55.55 0 0 1 .55-.55h2.61c2.83-.16 9.11-.09 12.93 3.25a9.3 9.3 0 0 1 3.14 7.36zm-3.91 0a5.49 5.49 0 0 0-1.8-4.39c-2.4-2.1-6.84-2.43-9.61-2.33V280c2.76.15 7.23-.1 9.63-2.17a5.38 5.38 0 0 0 1.78-4.31zM122 273.52a9.18 9.18 0 0 1-3.15 7.3c-3 2.62-7.64 3.14-10.82 3.14-.67 0-1.28 0-1.8-.05h-2.91a.55.55 0 0 1-.55-.55v-19.9a.55.55 0 0 1 .55-.55h2.61c2.83-.16 9.11-.09 12.93 3.25a9.3 9.3 0 0 1 3.14 7.36zm-3.91 0a5.49 5.49 0 0 0-1.8-4.39c-2.4-2.1-6.84-2.43-9.61-2.33V280c2.76.15 7.23-.1 9.63-2.17a5.38 5.38 0 0 0 1.74-4.31zM138.59 283.92h-2.81a.55.55 0 0 1-.55-.55v-19.9a.55.55 0 0 1 .55-.55h2.81a.55.55 0 0 1 .55.55v19.9a.55.55 0 0 1-.55.55zM172.87 263.47v19.9a.55.55 0 0 1-.55.55h-2.88a.54.54 0 0 1-.3-.14l-.06-.08-10-12.94v12.62a.55.55 0 0 1-.55.55h-2.81a.55.55 0 0 1-.55-.55v-19.9a.55.55 0 0 1 .55-.55h2.81a.55.55 0 0 1 .38.16l10 13.27v-12.89a.55.55 0 0 1 .55-.55h2.81a.55.55 0 0 1 .6.55zM204.18 273v10.09c0 .45-.25.82-.55.82h-2.81c-.28 0-.51-.32-.54-.73a10.77 10.77 0 1 1 3.22-17.65 1.05 1.05 0 0 1 0 1.5l-1.27 1.26a1 1 0 0 1-1.46 0 6.87 6.87 0 1 0-.49 10.37v-2.26h-4.34a.55.55 0 0 1-.55-.55V273a.55.55 0 0 1 .55-.55h7.69a.55.55 0 0 1 .55.55z"/></svg>