<svg xmlns="http://www.w3.org/2000/svg" xmlns:xlink="http://www.w3.org/1999/xlink" viewBox="0 0 143.6 26.48"><defs><style>.cls-1{fill:url(#linear-gradient);}.cls-2{fill:url(#linear-gradient-2);}</style><linearGradient id="linear-gradient" y1="13.24" x2="143.6" y2="13.24" gradientTransform="matrix(-1, 0, 0, 1, 143.6, 0)" gradientUnits="userSpaceOnUse"><stop offset="0" stop-color="#f5e8d4"/><stop offset="0.55" stop-color="#d4c39f"/><stop offset="0.61" stop-color="#d2bd8d"/><stop offset="0.7" stop-color="#cfb472"/><stop offset="0.8" stop-color="#cdad5f"/><stop offset="0.9" stop-color="#cba954"/><stop offset="1" stop-color="#cba850"/><stop offset="1" stop-color="#f3903f"/><stop offset="1" stop-color="#ed683c" stop-opacity="0"/><stop offset="1" stop-color="#cba850"/></linearGradient><linearGradient id="linear-gradient-2" x1="0" y1="13.24" x2="143.6" y2="13.24" gradientTransform="matrix(1, 0, 0, 1, 0, 0)" xlink:href="#linear-gradient"/></defs><title>Spacer</title><g id="Layer_2" data-name="Layer 2"><g id="Layer_1-2" data-name="Layer 1"><path class="cls-1" d="M7.24,8.89Q.11,1.09,1,10.53a8,8,0,0,0,2.7,2.93,14.82,14.82,0,0,0,8.53,3.1c4.26.29,8.51-.77,12.56-2,7.3-2.25,14.45-5,21.73-7.31C60.26,2.87,74.7-.71,89.21.12c10.91.63,22.35,3.48,31.27,10a35.67,35.67,0,0,1,9.36,10.57c1.31,2.13,2.56,4.5,5.26,5.25,5,1.39,9.74-4.11,7.44-8.88-.84-1.73-11.19-9.28-9.47-4.43.07.19-.24.28-.31.08l-1-2.72a.16.16,0,0,1,.2-.2c4.1,1.43,9.94,3.63,11.36,8.29.95,3.11-1,6.37-3.8,7.72-3.36,1.6-6.55,0-8.63-2.76-1.78-2.39-2.93-5.1-4.89-7.4a35,35,0,0,0-7.94-6.77C90.42-8.64,56.33,4.28,28.35,13.71c-6.52,2.2-14.15,4.71-21,2.2C3.08,14.33-.85,10.72.16,5.82a.16.16,0,0,1,.11-.11C2.33,5,5.91,3.8,7.6,6c.94,1.2.94,2.07-.13,3.15a.16.16,0,0,1-.22-.22Z"/><path class="cls-2" d="M136.36,8.89q7.13-7.8,6.23,1.64a8,8,0,0,1-2.7,2.93,14.82,14.82,0,0,1-8.53,3.1c-4.26.29-8.51-.77-12.56-2-7.3-2.25-14.45-5-21.73-7.31C83.34,2.87,68.91-.71,54.39.12,43.48.75,32,3.6,23.12,10.15a35.67,35.67,0,0,0-9.36,10.57c-1.31,2.13-2.56,4.5-5.26,5.25-5,1.39-9.74-4.11-7.44-8.88.84-1.73,11.19-9.28,9.47-4.43-.07.19.24.28.31.08l1-2.72a.16.16,0,0,0-.2-.2C7.5,11.26,1.66,13.45.24,18.12c-.95,3.11,1,6.37,3.8,7.72,3.36,1.6,6.55,0,8.63-2.76,1.78-2.39,2.93-5.1,4.89-7.4a35,35,0,0,1,7.94-6.77c27.68-17.55,61.77-4.63,89.75,4.81,6.52,2.2,14.15,4.71,21,2.2,4.31-1.59,8.24-5.2,7.23-10.09a.16.16,0,0,0-.11-.11C141.27,5,137.69,3.8,136,6c-.94,1.2-.94,2.07.13,3.15a.16.16,0,0,0,.22-.22Z"/><path class="cls-2" d="M136.36,8.89q7.13-7.8,6.23,1.64a8,8,0,0,1-2.7,2.93,14.82,14.82,0,0,1-8.53,3.1c-4.26.29-8.51-.77-12.56-2-7.3-2.25-14.45-5-21.73-7.31C83.34,2.87,68.91-.71,54.39.12,43.48.75,32,3.6,23.12,10.15a35.67,35.67,0,0,0-9.36,10.57c-1.31,2.13-2.56,4.5-5.26,5.25-5,1.39-9.74-4.11-7.44-8.88.84-1.73,11.19-9.28,9.47-4.43-.07.19.24.28.31.08l1-2.72a.16.16,0,0,0-.2-.2C7.5,11.26,1.66,13.45.24,18.12c-.95,3.11,1,6.37,3.8,7.72,3.36,1.6,6.55,0,8.63-2.76,1.78-2.39,2.93-5.1,4.89-7.4a35,35,0,0,1,7.94-6.77c27.68-17.55,61.77-4.63,89.75,4.81,6.52,2.2,14.15,4.71,21,2.2,4.31-1.59,8.24-5.2,7.23-10.09a.16.16,0,0,0-.11-.11C141.27,5,137.69,3.8,136,6c-.94,1.2-.94,2.07.13,3.15a.16.16,0,0,0,.22-.22Z"/><path class="cls-1" d="M7.24,8.89Q.11,1.09,1,10.53a8,8,0,0,0,2.7,2.93,14.82,14.82,0,0,0,8.53,3.1c4.26.29,8.51-.77,12.56-2,7.3-2.25,14.45-5,21.73-7.31C60.26,2.87,74.7-.71,89.21.12c10.91.63,22.35,3.48,31.27,10a35.67,35.67,0,0,1,9.36,10.57c1.31,2.13,2.56,4.5,5.26,5.25,5,1.39,9.74-4.11,7.44-8.88-.84-1.73-11.19-9.28-9.47-4.43.07.19-.24.28-.31.08l-1-2.72a.16.16,0,0,1,.2-.2c4.1,1.43,9.94,3.63,11.36,8.29.95,3.11-1,6.37-3.8,7.72-3.36,1.6-6.55,0-8.63-2.76-1.78-2.39-2.93-5.1-4.89-7.4a35,35,0,0,0-7.94-6.77C90.42-8.64,56.33,4.28,28.35,13.71c-6.52,2.2-14.15,4.71-21,2.2C3.08,14.33-.85,10.72.16,5.82a.16.16,0,0,1,.11-.11C2.33,5,5.91,3.8,7.6,6c.94,1.2.94,2.07-.13,3.15a.16.16,0,0,1-.22-.22Z"/><path class="cls-1" d="M7.24,8.89Q.11,1.09,1,10.53a8,8,0,0,0,2.7,2.93,14.82,14.82,0,0,0,8.53,3.1c4.26.29,8.51-.77,12.56-2,7.3-2.25,14.45-5,21.73-7.31C60.26,2.87,74.7-.71,89.21.12c10.91.63,22.35,3.48,31.27,10a35.67,35.67,0,0,1,9.36,10.57c1.31,2.13,2.56,4.5,5.26,5.25,5,1.39,9.74-4.11,7.44-8.88-.84-1.73-11.19-9.28-9.47-4.43.07.19-.24.28-.31.08l-1-2.72a.16.16,0,0,1,.2-.2c4.1,1.43,9.94,3.63,11.36,8.29.95,3.11-1,6.37-3.8,7.72-3.36,1.6-6.55,0-8.63-2.76-1.78-2.39-2.93-5.1-4.89-7.4a35,35,0,0,0-7.94-6.77C90.42-8.64,56.33,4.28,28.35,13.71c-6.52,2.2-14.15,4.71-21,2.2C3.08,14.33-.85,10.72.16,5.82a.16.16,0,0,1,.11-.11C2.33,5,5.91,3.8,7.6,6c.94,1.2.94,2.07-.13,3.15a.16.16,0,0,1-.22-.22Z"/><path class="cls-2" d="M136.36,8.89q7.13-7.8,6.23,1.64a8,8,0,0,1-2.7,2.93,14.82,14.82,0,0,1-8.53,3.1c-4.26.29-8.51-.77-12.56-2-7.3-2.25-14.45-5-21.73-7.31C83.34,2.87,68.91-.71,54.39.12,43.48.75,32,3.6,23.12,10.15a35.67,35.67,0,0,0-9.36,10.57c-1.31,2.13-2.56,4.5-5.26,5.25-5,1.39-9.74-4.11-7.44-8.88.84-1.73,11.19-9.28,9.47-4.43-.07.19.24.28.31.08l1-2.72a.16.16,0,0,0-.2-.2C7.5,11.26,1.66,13.45.24,18.12c-.95,3.11,1,6.37,3.8,7.72,3.36,1.6,6.55,0,8.63-2.76,1.78-2.39,2.93-5.1,4.89-7.4a35,35,0,0,1,7.94-6.77c27.68-17.55,61.77-4.63,89.75,4.81,6.52,2.2,14.15,4.71,21,2.2,4.31-1.59,8.24-5.2,7.23-10.09a.16.16,0,0,0-.11-.11C141.27,5,137.69,3.8,136,6c-.94,1.2-.94,2.07.13,3.15a.16.16,0,0,0,.22-.22Z"/></g></g></svg>