<svg xmlns="http://www.w3.org/2000/svg" xmlns:xlink="http://www.w3.org/1999/xlink" viewBox="0 0 166.45 31.89"><defs><style>.cls-1{fill:url(#linear-gradient)}.cls-2{fill:url(#linear-gradient-2)}</style><linearGradient id="linear-gradient" y1="15.94" x2="166.26" y2="15.94" gradientTransform="matrix(-1 0 0 1 166.45 0)" gradientUnits="userSpaceOnUse"><stop offset="0" stop-color="#f5e8d4"/><stop offset=".55" stop-color="#d4c39f"/><stop offset=".61" stop-color="#d2bd8d"/><stop offset=".7" stop-color="#cfb472"/><stop offset=".8" stop-color="#cdad5f"/><stop offset=".9" stop-color="#cba954"/><stop offset="1" stop-color="#cba850"/><stop offset="1" stop-color="#f3903f"/><stop offset="1" stop-color="#ed683c" stop-opacity="0"/><stop offset="1" stop-color="#cba850"/></linearGradient><linearGradient id="linear-gradient-2" y1="15.94" x2="166.26" y2="15.94" xlink:href="#linear-gradient"/></defs><title>Bottom</title><g id="Layer_2" data-name="Layer 2"><g id="Layer_1-2" data-name="Layer 1"><path class="cls-1" d="M11.87 9.7c-1.41 9.47 16.06 6 9.55-2C18.67 4.31 12 6.15 9.1 8a10.67 10.67 0 0 0-1.74 16.94c10.38 10.12 20-4.32 25.9-11.47l3.51-4.24c1.35-1.63 4.1-3.73.45-2.55s-7.07 4.49-10.34 6.55c-5.21 3.28-11.47 6.26-17.8 5-4-.77-8.63-3.46-9-7.91S3.5 2.93 7.09 1.46c2-.82 10.11-3.1 11.21.55.55 1.82-1.63 2.81-2.95 1.9a.13.13 0 0 1 .07-.24A33.56 33.56 0 0 1 34.5 10c5.45 4 9.67 9.5 15.38 13.2 13.68 8.86 33.46 8.39 49.2 8.3 8.95-.05 18.1-1.05 26.29-4.89a31 31 0 0 0 10-7.14c2.51-2.81 3.26-7.16-1.06-8.59a24.63 24.63 0 0 0-5.17-1.09c-3.67-.39-11.32 0-7.52 8 1 2.09 3.72 3.83 5.64 5a56.63 56.63 0 0 0 13.07 5.62c4.33 1.34 9.1 2.61 13.64 2.67a18.69 18.69 0 0 0 6.3-.77 9.63 9.63 0 0 0 5.14-4q.53-5.7-3.71-8.19c.11-.13.29.05.18.18-1.18 1.46-2.28 1.68-4.06 1.15a.13.13 0 0 1 0-.24c4.08-2 10 1.11 8.35 6.11-2.79 8.7-16.13 5.87-22.39 4.29-6.81-1.72-21.92-5.72-23.41-14.22-1.24-7.11 8.75-6.22 12.8-5.14 8.44 2.26 4.29 8.39-.94 12.47-8 6.27-18.53 8.41-28.5 8.9a175.64 175.64 0 0 1-35.6-1.81c-10.82-1.73-18.9-6-26.79-13.44C36.16 11.51 31 7.12 24 5.14c-2-.55-5.11-.43-6.82-1.15Q16 .08 13.12.43a14 14 0 0 0-3.34.44C6.11 1.74 1.5 4.14.47 8.14c-1.39 5.41 4.21 9 8.68 9.86s9.38-.56 13.45-2.61C28.75 12.29 33.93 7.7 40.3 5a.13.13 0 0 1 .16.2c-4.88 5.89-9.53 12.09-14.73 17.69-3 3.27-6.87 6.12-11.57 5.62C4.8 27.49 0 15.58 7.26 9.11 11 5.72 25.12 3.21 22.72 12.2c-1.72 6.57-12.06 3.87-11.1-2.57 0-.17.28-.09.25.07z"/><path class="cls-2" d="M154.57 9.7c1.41 9.47-16.06 6-9.55-2 2.75-3.39 9.38-1.54 12.32.34a10.67 10.67 0 0 1 1.74 16.91c-10.38 10.12-20-4.32-25.9-11.47l-3.51-4.24c-1.35-1.63-4.1-3.73-.45-2.55s7.07 4.49 10.34 6.55c5.21 3.28 11.47 6.26 17.8 5 4-.77 8.63-3.46 9-7.91s-3.48-7.41-7.06-8.88c-2-.82-10.11-3.1-11.21.55-.55 1.82 1.63 2.81 2.95 1.9a.13.13 0 0 0-.07-.24A33.56 33.56 0 0 0 131.94 10c-5.45 4-9.67 9.5-15.38 13.2-13.68 8.86-33.46 8.39-49.2 8.3-8.95-.05-18.1-1.05-26.29-4.89A31 31 0 0 1 31 19.5c-2.51-2.81-3.26-7.16 1.06-8.59a24.63 24.63 0 0 1 5.17-1.09c3.67-.39 11.32 0 7.52 8-1 2.09-3.72 3.83-5.64 5a56.63 56.63 0 0 1-13.07 5.62C21.76 29.76 17 31 12.45 31.09a18.69 18.69 0 0 1-6.3-.77 9.63 9.63 0 0 1-5.14-4q-.53-5.7 3.71-8.19c-.11-.13-.29.05-.18.18 1.17 1.5 2.27 1.69 4.05 1.19a.13.13 0 0 0 0-.24c-4.08-2-10 1.11-8.35 6.11 2.79 8.7 16.13 5.87 22.39 4.29 6.81-1.72 21.92-5.72 23.41-14.22 1.24-7.11-8.75-6.22-12.8-5.14-8.44 2.26-4.29 8.39.94 12.47 8 6.27 18.53 8.41 28.5 8.9a175.64 175.64 0 0 0 35.6-1.81c10.82-1.73 18.9-6 26.79-13.44 5.19-4.9 10.32-9.3 17.37-11.27 2-.55 5.11-.43 6.82-1.15q1.14-3.91 4-3.56a14 14 0 0 1 3.34.44c3.67.87 8.28 3.27 9.31 7.27 1.39 5.41-4.21 9-8.68 9.86s-9.38-.56-13.45-2.61c-6.09-3.11-11.27-7.7-17.64-10.4a.13.13 0 0 0-.16.2c4.88 5.89 9.53 12.09 14.73 17.69 3 3.27 6.87 6.12 11.57 5.62 9.35-1 14.13-12.92 6.89-19.39-3.78-3.38-17.86-5.9-15.46 3.09 1.75 6.57 12.06 3.88 11.1-2.57 0-.17-.28-.09-.25.07z"/><path class="cls-2" d="M154.57 9.7c1.41 9.47-16.06 6-9.55-2 2.75-3.39 9.38-1.54 12.32.34a10.67 10.67 0 0 1 1.74 16.91c-10.38 10.12-20-4.32-25.9-11.47l-3.51-4.24c-1.35-1.63-4.1-3.73-.45-2.55s7.07 4.49 10.34 6.55c5.21 3.28 11.47 6.26 17.8 5 4-.77 8.63-3.46 9-7.91s-3.48-7.41-7.06-8.88c-2-.82-10.11-3.1-11.21.55-.55 1.82 1.63 2.81 2.95 1.9a.13.13 0 0 0-.07-.24A33.56 33.56 0 0 0 131.94 10c-5.45 4-9.67 9.5-15.38 13.2-13.68 8.86-33.46 8.39-49.2 8.3-8.95-.05-18.1-1.05-26.29-4.89A31 31 0 0 1 31 19.5c-2.51-2.81-3.26-7.16 1.06-8.59a24.63 24.63 0 0 1 5.17-1.09c3.67-.39 11.32 0 7.52 8-1 2.09-3.72 3.83-5.64 5a56.63 56.63 0 0 1-13.07 5.62C21.76 29.76 17 31 12.45 31.09a18.69 18.69 0 0 1-6.3-.77 9.63 9.63 0 0 1-5.14-4q-.53-5.7 3.71-8.19c-.11-.13-.29.05-.18.18 1.17 1.5 2.27 1.69 4.05 1.19a.13.13 0 0 0 0-.24c-4.08-2-10 1.11-8.35 6.11 2.79 8.7 16.13 5.87 22.39 4.29 6.81-1.72 21.92-5.72 23.41-14.22 1.24-7.11-8.75-6.22-12.8-5.14-8.44 2.26-4.29 8.39.94 12.47 8 6.27 18.53 8.41 28.5 8.9a175.64 175.64 0 0 0 35.6-1.81c10.82-1.73 18.9-6 26.79-13.44 5.19-4.9 10.32-9.3 17.37-11.27 2-.55 5.11-.43 6.82-1.15q1.14-3.91 4-3.56a14 14 0 0 1 3.34.44c3.67.87 8.28 3.27 9.31 7.27 1.39 5.41-4.21 9-8.68 9.86s-9.38-.56-13.45-2.61c-6.09-3.11-11.27-7.7-17.64-10.4a.13.13 0 0 0-.16.2c4.88 5.89 9.53 12.09 14.73 17.69 3 3.27 6.87 6.12 11.57 5.62 9.35-1 14.13-12.92 6.89-19.39-3.78-3.38-17.86-5.9-15.46 3.09 1.75 6.57 12.06 3.88 11.1-2.57 0-.17-.28-.09-.25.07z"/><path class="cls-1" d="M11.87 9.7c-1.41 9.47 16.06 6 9.55-2C18.67 4.31 12 6.15 9.1 8a10.67 10.67 0 0 0-1.74 16.94c10.38 10.12 20-4.32 25.9-11.47l3.51-4.24c1.35-1.63 4.1-3.73.45-2.55s-7.07 4.49-10.34 6.55c-5.21 3.28-11.47 6.26-17.8 5-4-.77-8.63-3.46-9-7.91S3.5 2.93 7.09 1.46c2-.82 10.11-3.1 11.21.55.55 1.82-1.63 2.81-2.95 1.9a.13.13 0 0 1 .07-.24A33.56 33.56 0 0 1 34.5 10c5.45 4 9.67 9.5 15.38 13.2 13.68 8.86 33.46 8.39 49.2 8.3 8.95-.05 18.1-1.05 26.29-4.89a31 31 0 0 0 10-7.14c2.51-2.81 3.26-7.16-1.06-8.59a24.63 24.63 0 0 0-5.17-1.09c-3.67-.39-11.32 0-7.52 8 1 2.09 3.72 3.83 5.64 5a56.63 56.63 0 0 0 13.07 5.62c4.33 1.34 9.1 2.61 13.64 2.67a18.69 18.69 0 0 0 6.3-.77 9.63 9.63 0 0 0 5.14-4q.53-5.7-3.71-8.19c.11-.13.29.05.18.18-1.18 1.46-2.28 1.68-4.06 1.15a.13.13 0 0 1 0-.24c4.08-2 10 1.11 8.35 6.11-2.79 8.7-16.13 5.87-22.39 4.29-6.81-1.72-21.92-5.72-23.41-14.22-1.24-7.11 8.75-6.22 12.8-5.14 8.44 2.26 4.29 8.39-.94 12.47-8 6.27-18.53 8.41-28.5 8.9a175.64 175.64 0 0 1-35.6-1.81c-10.82-1.73-18.9-6-26.79-13.44C36.16 11.51 31 7.12 24 5.14c-2-.55-5.11-.43-6.82-1.15Q16 .08 13.12.43a14 14 0 0 0-3.34.44C6.11 1.74 1.5 4.14.47 8.14c-1.39 5.41 4.21 9 8.68 9.86s9.38-.56 13.45-2.61C28.75 12.29 33.93 7.7 40.3 5a.13.13 0 0 1 .16.2c-4.88 5.89-9.53 12.09-14.73 17.69-3 3.27-6.87 6.12-11.57 5.62C4.8 27.49 0 15.58 7.26 9.11 11 5.72 25.12 3.21 22.72 12.2c-1.72 6.57-12.06 3.87-11.1-2.57 0-.17.28-.09.25.07z"/><path class="cls-1" d="M11.87 9.7c-1.41 9.47 16.06 6 9.55-2C18.67 4.31 12 6.15 9.1 8a10.67 10.67 0 0 0-1.74 16.94c10.38 10.12 20-4.32 25.9-11.47l3.51-4.24c1.35-1.63 4.1-3.73.45-2.55s-7.07 4.49-10.34 6.55c-5.21 3.28-11.47 6.26-17.8 5-4-.77-8.63-3.46-9-7.91S3.5 2.93 7.09 1.46c2-.82 10.11-3.1 11.21.55.55 1.82-1.63 2.81-2.95 1.9a.13.13 0 0 1 .07-.24A33.56 33.56 0 0 1 34.5 10c5.45 4 9.67 9.5 15.38 13.2 13.68 8.86 33.46 8.39 49.2 8.3 8.95-.05 18.1-1.05 26.29-4.89a31 31 0 0 0 10-7.14c2.51-2.81 3.26-7.16-1.06-8.59a24.63 24.63 0 0 0-5.17-1.09c-3.67-.39-11.32 0-7.52 8 1 2.09 3.72 3.83 5.64 5a56.63 56.63 0 0 0 13.07 5.62c4.33 1.34 9.1 2.61 13.64 2.67a18.69 18.69 0 0 0 6.3-.77 9.63 9.63 0 0 0 5.14-4q.53-5.7-3.71-8.19c.11-.13.29.05.18.18-1.18 1.46-2.28 1.68-4.06 1.15a.13.13 0 0 1 0-.24c4.08-2 10 1.11 8.35 6.11-2.79 8.7-16.13 5.87-22.39 4.29-6.81-1.72-21.92-5.72-23.41-14.22-1.24-7.11 8.75-6.22 12.8-5.14 8.44 2.26 4.29 8.39-.94 12.47-8 6.27-18.53 8.41-28.5 8.9a175.64 175.64 0 0 1-35.6-1.81c-10.82-1.73-18.9-6-26.79-13.44C36.16 11.51 31 7.12 24 5.14c-2-.55-5.11-.43-6.82-1.15Q16 .08 13.12.43a14 14 0 0 0-3.34.44C6.11 1.74 1.5 4.14.47 8.14c-1.39 5.41 4.21 9 8.68 9.86s9.38-.56 13.45-2.61C28.75 12.29 33.93 7.7 40.3 5a.13.13 0 0 1 .16.2c-4.88 5.89-9.53 12.09-14.73 17.69-3 3.27-6.87 6.12-11.57 5.62C4.8 27.49 0 15.58 7.26 9.11 11 5.72 25.12 3.21 22.72 12.2c-1.72 6.57-12.06 3.87-11.1-2.57 0-.17.28-.09.25.07z"/><path class="cls-2" d="M154.57 9.7c1.41 9.47-16.06 6-9.55-2 2.75-3.39 9.38-1.54 12.32.34a10.67 10.67 0 0 1 1.74 16.91c-10.38 10.12-20-4.32-25.9-11.47l-3.51-4.24c-1.35-1.63-4.1-3.73-.45-2.55s7.07 4.49 10.34 6.55c5.21 3.28 11.47 6.26 17.8 5 4-.77 8.63-3.46 9-7.91s-3.48-7.41-7.06-8.88c-2-.82-10.11-3.1-11.21.55-.55 1.82 1.63 2.81 2.95 1.9a.13.13 0 0 0-.07-.24A33.56 33.56 0 0 0 131.94 10c-5.45 4-9.67 9.5-15.38 13.2-13.68 8.86-33.46 8.39-49.2 8.3-8.95-.05-18.1-1.05-26.29-4.89A31 31 0 0 1 31 19.5c-2.51-2.81-3.26-7.16 1.06-8.59a24.63 24.63 0 0 1 5.17-1.09c3.67-.39 11.32 0 7.52 8-1 2.09-3.72 3.83-5.64 5a56.63 56.63 0 0 1-13.07 5.62C21.76 29.76 17 31 12.45 31.09a18.69 18.69 0 0 1-6.3-.77 9.63 9.63 0 0 1-5.14-4q-.53-5.7 3.71-8.19c-.11-.13-.29.05-.18.18 1.17 1.5 2.27 1.69 4.05 1.19a.13.13 0 0 0 0-.24c-4.08-2-10 1.11-8.35 6.11 2.79 8.7 16.13 5.87 22.39 4.29 6.81-1.72 21.92-5.72 23.41-14.22 1.24-7.11-8.75-6.22-12.8-5.14-8.44 2.26-4.29 8.39.94 12.47 8 6.27 18.53 8.41 28.5 8.9a175.64 175.64 0 0 0 35.6-1.81c10.82-1.73 18.9-6 26.79-13.44 5.19-4.9 10.32-9.3 17.37-11.27 2-.55 5.11-.43 6.82-1.15q1.14-3.91 4-3.56a14 14 0 0 1 3.34.44c3.67.87 8.28 3.27 9.31 7.27 1.39 5.41-4.21 9-8.68 9.86s-9.38-.56-13.45-2.61c-6.09-3.11-11.27-7.7-17.64-10.4a.13.13 0 0 0-.16.2c4.88 5.89 9.53 12.09 14.73 17.69 3 3.27 6.87 6.12 11.57 5.62 9.35-1 14.13-12.92 6.89-19.39-3.78-3.38-17.86-5.9-15.46 3.09 1.75 6.57 12.06 3.88 11.1-2.57 0-.17-.28-.09-.25.07z"/></g></g></svg>