<svg xmlns="http://www.w3.org/2000/svg" xmlns:xlink="http://www.w3.org/1999/xlink" viewBox="0 0 172.57 54.15"><defs><style>.cls-1{fill:url(#linear-gradient)}.cls-2{fill:url(#linear-gradient-2)}.cls-3{fill:url(#linear-gradient-3)}.cls-4{fill:url(#linear-gradient-4)}.cls-5{fill:url(#linear-gradient-5)}.cls-6{fill:url(#linear-gradient-6)}.cls-7{fill:url(#linear-gradient-7)}.cls-8{fill:url(#linear-gradient-8)}.cls-9{fill:url(#linear-gradient-9)}.cls-10{fill:url(#linear-gradient-10)}.cls-11{fill:url(#linear-gradient-11)}.cls-12{fill:url(#linear-gradient-12)}.cls-13{fill:url(#linear-gradient-13)}.cls-14{fill:url(#linear-gradient-14)}</style><linearGradient id="linear-gradient" x1="155.17" y1="28.44" x2="171.88" y2="28.44" gradientTransform="matrix(-1 0 0 1 327.26 0)" gradientUnits="userSpaceOnUse"><stop offset="0" stop-color="#f5e8d4"/><stop offset=".55" stop-color="#d4c39f"/><stop offset=".61" stop-color="#d2bd8d"/><stop offset=".7" stop-color="#cfb472"/><stop offset=".8" stop-color="#cdad5f"/><stop offset=".9" stop-color="#cba954"/><stop offset="1" stop-color="#cba850"/><stop offset="1" stop-color="#f3903f"/><stop offset="1" stop-color="#ed683c" stop-opacity="0"/><stop offset="1" stop-color="#cba850"/></linearGradient><linearGradient id="linear-gradient-2" x1="155.17" y1="28.44" x2="171.88" y2="28.44" xlink:href="#linear-gradient"/><linearGradient id="linear-gradient-3" x1="86.42" y1="21.17" x2="157.41" y2="21.17" gradientTransform="matrix(-1 0 0 1 243.89 0)" xlink:href="#linear-gradient"/><linearGradient id="linear-gradient-4" x1="86.42" y1="21.17" x2="157.41" y2="21.17" xlink:href="#linear-gradient"/><linearGradient id="linear-gradient-5" x1="163.74" y1="48.11" x2="171.11" y2="48.11" gradientTransform="matrix(-1 0 0 1 334.91 0)" xlink:href="#linear-gradient"/><linearGradient id="linear-gradient-6" x1="163.74" y1="48.11" x2="171.11" y2="48.11" xlink:href="#linear-gradient"/><linearGradient id="linear-gradient-7" x1=".7" y1="28.51" x2="17.41" y2="28.51" gradientTransform="matrix(-1 0 0 1 17.78 0)" xlink:href="#linear-gradient"/><linearGradient id="linear-gradient-8" x1=".7" y1="28.51" x2="17.41" y2="28.51" xlink:href="#linear-gradient"/><linearGradient id="linear-gradient-9" x1="15.17" y1="21.22" x2="86.16" y2="21.22" gradientTransform="matrix(-1 0 0 1 101.18 0)" xlink:href="#linear-gradient"/><linearGradient id="linear-gradient-10" x1="15.17" y1="21.22" x2="86.16" y2="21.22" xlink:href="#linear-gradient"/><linearGradient id="linear-gradient-11" x1="1.47" y1="48.07" x2="8.83" y2="48.07" gradientTransform="matrix(-1 0 0 1 10.07 0)" xlink:href="#linear-gradient"/><linearGradient id="linear-gradient-12" x1="1.47" y1="48.07" x2="8.83" y2="48.07" xlink:href="#linear-gradient"/><linearGradient id="linear-gradient-13" x1="40.84" y1="21.48" x2="131.39" y2="21.48" gradientTransform="matrix(-1 0 0 1 172.25 0)" xlink:href="#linear-gradient"/><linearGradient id="linear-gradient-14" x1="40.84" y1="21.48" x2="131.39" y2="21.48" xlink:href="#linear-gradient"/></defs><title>Top</title><g id="Layer_2" data-name="Layer 2"><g id="Layer_1-2" data-name="Layer 1"><path class="cls-1" d="M166.29 21.63c4-1.89 3.91-8.6-3.11-7.21-2.17.43-4.23 2.49-5.32 4.29-2 3.25-2.08 7.34-2 11a23.63 23.63 0 0 0 .77 6.32c1.48 4.77 8.43 8.85 12.76 4.94a6.75 6.75 0 0 0 2.21-4.51 6.57 6.57 0 0 0-.78-3.44q-6.07-4.9-4.16-.44c0-.12.71 0 .71.19v1.27h-.12c-4.59.12-1.5-5.82 2.67-2.85 7.11 5.07-1.41 13.88-8.17 11.23C152.9 39 152.86 22 159 16.25c2.07-1.94 5.12-3 7.86-1.87 3.63 1.5 3.77 5.77.14 7.49-.19.09-.74-.2-.66-.24z"/><path class="cls-2" d="M161 21.63c-4-1.89-3.91-8.6 3.11-7.21 2.17.43 4.23 2.49 5.32 4.29 2 3.25 2.08 7.34 2 11a23.63 23.63 0 0 1-.77 6.32c-1.48 4.77-8.43 8.85-12.76 4.94a6.75 6.75 0 0 1-2.21-4.51 6.57 6.57 0 0 1 .78-3.44q6.07-4.9 4.16-.44c0-.12-.71 0-.71.19v1.27h.12c4.59.12 1.5-5.82-2.67-2.85-7.11 5.07 1.41 13.88 8.17 11.23 8.82-3.42 8.86-20.42 2.77-26.17-2.07-1.94-5.12-3-7.86-1.87-3.63 1.5-3.77 5.77-.14 7.49.19.09.74-.2.66-.24z"/><path class="cls-3" d="M152.67 22.68c.48-1.84 4.37-2.06 4.94 0 1.31 4.79-11.23 3.68-13.48 3.19a41.31 41.31 0 0 1-8.37-3 67.64 67.64 0 0 0-17.41-5.67c-10.46-1.69-21.15-1.1-31.57.56-.16 0-.75-.23-.58-.26 10.55-1.68 21.39-2.28 32-.56a58.81 58.81 0 0 1 12.44 3.37c2.69 1.07 5.23 2.48 7.92 3.55 4.2 1.67 9.78 3.05 14.39 1.92l2.58-1q3.66-2.53-2.13-2c0 .14-.74 0-.71-.19z"/><path class="cls-4" d="M91.22 22.68c-.48-1.84-4.37-2.06-4.94 0-1.28 4.83 11.23 3.72 13.47 3.23a41.31 41.31 0 0 0 8.37-3 67.64 67.64 0 0 1 17.41-5.67c10.46-1.69 21.15-1.1 31.57.56.16 0 .75-.23.58-.26-10.55-1.68-21.39-2.28-32-.56a58.81 58.81 0 0 0-12.44 3.37c-2.69 1.07-5.23 2.48-7.92 3.55-4.17 1.67-9.76 3.1-14.32 1.92l-2.58-1q-3.66-2.53 2.13-2c0 .14.74 0 .71-.19z"/><path class="cls-5" d="M168.33 42.21a6.75 6.75 0 0 1 2.8 7.41c-.66 2.16-3.09 5-5.63 4.42-1.72-.36-2.39-2.54-1.74-4.08a1.2 1.2 0 0 1 2.28-.1c.05.13-.63.07-.7-.12-.35-.92-1 1.31-1.06 1.47-.05 1.14.25 2.62 1.91 2.52 1.51-.09 3.09-1.94 3.74-3.12a6.49 6.49 0 0 0-2.14-8.37c-.29-.21.41-.13.54 0z"/><path class="cls-6" d="M166.58 42.21a6.75 6.75 0 0 0-2.8 7.41c.66 2.16 3.09 5 5.63 4.42 1.72-.36 2.39-2.54 1.74-4.08a1.2 1.2 0 0 0-2.28-.1c-.05.13.63.07.7-.12.35-.92 1 1.31 1.06 1.47.05 1.14-.25 2.62-1.91 2.52-1.51-.09-3.09-1.94-3.74-3.12a6.49 6.49 0 0 1 2.14-8.37c.29-.21-.41-.13-.54 0z"/><path class="cls-7" d="M5.71 21.87C-1 18.7 5.35 12 11.09 14.67c8.48 4 8.95 22.59 1.1 27.25C6.47 45.32-3 40.07.94 33c1-1.83 3.79-3.77 5.85-2.25s.94 3.47-1.18 3.42c-.16 0-.49-.07-.49-.28v-1.27c0-.18.7-.07.71.19q-3.23-2.19-4.07.48a4.26 4.26 0 0 0-.86 2.16c-.72 4.7 4.38 8.57 9.44 6.79 3.64-1.28 5.41-5.17 5.95-8.7A31.88 31.88 0 0 0 16.2 23c-.36-1.79-1-4.33-2.39-5.55l-9.54-1.59Q2.08 19.66 6 21.62c.44.21 0 .39-.27.25z"/><path class="cls-8" d="M12.08 21.87c6.69-3.17.35-9.91-5.39-7.2-8.48 4-8.95 22.59-1.1 27.25 5.72 3.39 15.21-1.85 11.25-9-1-1.83-3.79-3.77-5.85-2.25s-.94 3.47 1.18 3.42c.16 0 .49-.07.49-.28v-1.27c0-.18-.7-.07-.71.19q3.23-2.19 4.07.48a4.26 4.26 0 0 1 .82 2.19c.72 4.7-4.38 8.57-9.44 6.79C3.79 41 2 37.07 1.49 33.54A31.88 31.88 0 0 1 1.58 23c.36-1.79 1-4.33 2.39-5.55l9.54-1.57q2.18 3.8-1.7 5.77c-.44.21 0 .39.27.25z"/><path class="cls-9" d="M19.11 22.74c1 4 2.64 3.53 5.83 3.34A24.08 24.08 0 0 0 30.6 25a95.68 95.68 0 0 0 9.58-4.08 58.09 58.09 0 0 1 13.89-4c10.55-1.72 21.38-1.11 31.89.57.36.06.56.52.08.45a102.42 102.42 0 0 0-30-.81 59.58 59.58 0 0 0-16 4.53c-4 1.76-7.83 3.79-12.17 4.58-2.41.44-12.83 1.36-12.91-3.14 0-2.57 4.38-2.45 5-.24.08.29-.64.2-.71-.07z"/><path class="cls-10" d="M82.07 22.74c-1 4-2.64 3.53-5.83 3.34A24.08 24.08 0 0 1 70.58 25 95.68 95.68 0 0 1 61 20.88a58.09 58.09 0 0 0-13.89-4c-10.55-1.72-21.38-1.11-31.89.57-.36.06-.56.52-.08.45a102.42 102.42 0 0 1 30-.81 59.58 59.58 0 0 1 16 4.53c4 1.76 7.83 3.79 12.17 4.58 2.41.44 12.83 1.36 12.91-3.14 0-2.57-4.38-2.45-5-.24-.08.29.64.2.71-.07z"/><path class="cls-11" d="M4.62 42.41A6.43 6.43 0 0 0 2 49.52c.38 1.24 1.23 2.87 2.47 3.42l3.12.21.42-1a3.62 3.62 0 0 0 .06-1.4q0-.79-1-.89c-.11.29-.81.09-.71-.19.5-1.31 1.88-.63 2.29.39.81 2-.4 4.43-2.69 4C.05 53-.16 45.07 4.07 42c.23-.16.86.16.55.38z"/><path class="cls-12" d="M5.45 42.41a6.43 6.43 0 0 1 2.62 7.1c-.38 1.24-1.23 2.87-2.47 3.42l-3.12.21-.42-1A3.62 3.62 0 0 1 2 50.79q0-.79 1-.89c.11.29.81.09.71-.19-.5-1.31-1.88-.63-2.29.39-.81 2 .4 4.43 2.69 4C10 53 10.23 45.07 6 42c-.23-.16-.86.16-.55.38z"/><path class="cls-13" d="M109.54 33c2.11-.5 11.29-3.19 10.54 2.23a2.05 2.05 0 0 1-3.89.82c-.1-.17.1-.33.26-.26 3 1.4 6.58 2.37 9.76.92 3.74-1.71 5.73-5.18 4-9-2.51-5.42-9.25-5.59-14.37-4-6 1.88-11 6.08-15.95 9.83-4.37 3.31-9 6.68-14.32 8.23-6.63 1.93-14 1.18-20.68-.38-11.56-2.67-23.26-10.64-24.12-23.49C40.16 8.76 48.19-2 58.26.31c3.07.7 6.86 3.9 4.83 7.43A3.15 3.15 0 0 1 57.27 7c-.07-.23.29-.33.36-.1q6.25-5.41.53-6.2A11.86 11.86 0 0 0 53 .77a14.82 14.82 0 0 0-6.8 3.85 16.73 16.73 0 0 0-5.1 12.51c.26 10.34 8.43 18.35 17.54 22 8.39 3.35 19.38 5 28 1.93 6.31-2.2 11.47-6.71 16.75-10.65 6.3-4.7 20.24-13.32 26.88-4.14 2.24 3.1 1.2 7.13-1.57 9.52a9.34 9.34 0 0 1-6.67 2 12.6 12.6 0 0 1-4.4-1c-7.33-3.31-2.49-4.71-8-3.4-.24.06-.34-.31-.1-.36z"/><path class="cls-14" d="M62.71 33c-2.11-.5-11.29-3.19-10.54 2.23a2.05 2.05 0 0 0 3.89.82c.1-.17-.1-.33-.26-.26-3 1.4-6.58 2.37-9.76.92-3.74-1.71-5.73-5.18-4-9 2.51-5.42 9.25-5.59 14.37-4 6 1.88 11 6.08 15.95 9.83 4.37 3.31 9 6.68 14.32 8.23 6.63 1.93 14 1.18 20.68-.38 11.53-2.71 23.22-10.68 24.08-23.53C132.09 8.76 124.06-2 114 .31c-3.07.7-6.86 3.9-4.83 7.43A3.15 3.15 0 0 0 115 7c.07-.23-.29-.33-.36-.1q-6.25-5.41-.53-6.2a11.86 11.86 0 0 1 5.12.09 14.82 14.82 0 0 1 6.85 3.85 16.73 16.73 0 0 1 5.1 12.51c-.26 10.34-8.43 18.35-17.54 22-8.39 3.35-19.38 5-28 1.93-6.31-2.2-11.47-6.71-16.75-10.65-6.3-4.7-20.24-13.32-26.88-4.14-2.24 3.1-1.2 7.13 1.57 9.52a9.34 9.34 0 0 0 6.67 2 12.6 12.6 0 0 0 4.4-1c7.33-3.31 2.49-4.71 8-3.4.24.06.34-.31.1-.36z"/><path class="cls-14" d="M62.71 33c-2.11-.5-11.29-3.19-10.54 2.23a2.05 2.05 0 0 0 3.89.82c.1-.17-.1-.33-.26-.26-3 1.4-6.58 2.37-9.76.92-3.74-1.71-5.73-5.18-4-9 2.51-5.42 9.25-5.59 14.37-4 6 1.88 11 6.08 15.95 9.83 4.37 3.31 9 6.68 14.32 8.23 6.63 1.93 14 1.18 20.68-.38 11.53-2.71 23.22-10.68 24.08-23.53C132.09 8.76 124.06-2 114 .31c-3.07.7-6.86 3.9-4.83 7.43A3.15 3.15 0 0 0 115 7c.07-.23-.29-.33-.36-.1q-6.25-5.41-.53-6.2a11.86 11.86 0 0 1 5.12.09 14.82 14.82 0 0 1 6.85 3.85 16.73 16.73 0 0 1 5.1 12.51c-.26 10.34-8.43 18.35-17.54 22-8.39 3.35-19.38 5-28 1.93-6.31-2.2-11.47-6.71-16.75-10.65-6.3-4.7-20.24-13.32-26.88-4.14-2.24 3.1-1.2 7.13 1.57 9.52a9.34 9.34 0 0 0 6.67 2 12.6 12.6 0 0 0 4.4-1c7.33-3.31 2.49-4.71 8-3.4.24.06.34-.31.1-.36z"/><path class="cls-13" d="M109.54 33c2.11-.5 11.29-3.19 10.54 2.23a2.05 2.05 0 0 1-3.89.82c-.1-.17.1-.33.26-.26 3 1.4 6.58 2.37 9.76.92 3.74-1.71 5.73-5.18 4-9-2.51-5.42-9.25-5.59-14.37-4-6 1.88-11 6.08-15.95 9.83-4.37 3.31-9 6.68-14.32 8.23-6.63 1.93-14 1.18-20.68-.38-11.56-2.67-23.26-10.64-24.12-23.49C40.16 8.76 48.19-2 58.26.31c3.07.7 6.86 3.9 4.83 7.43A3.15 3.15 0 0 1 57.27 7c-.07-.23.29-.33.36-.1q6.25-5.41.53-6.2A11.86 11.86 0 0 0 53 .77a14.82 14.82 0 0 0-6.8 3.85 16.73 16.73 0 0 0-5.1 12.51c.26 10.34 8.43 18.35 17.54 22 8.39 3.35 19.38 5 28 1.93 6.31-2.2 11.47-6.71 16.75-10.65 6.3-4.7 20.24-13.32 26.88-4.14 2.24 3.1 1.2 7.13-1.57 9.52a9.34 9.34 0 0 1-6.67 2 12.6 12.6 0 0 1-4.4-1c-7.33-3.31-2.49-4.71-8-3.4-.24.06-.34-.31-.1-.36z"/><path class="cls-13" d="M109.54 33c2.11-.5 11.29-3.19 10.54 2.23a2.05 2.05 0 0 1-3.89.82c-.1-.17.1-.33.26-.26 3 1.4 6.58 2.37 9.76.92 3.74-1.71 5.73-5.18 4-9-2.51-5.42-9.25-5.59-14.37-4-6 1.88-11 6.08-15.95 9.83-4.37 3.31-9 6.68-14.32 8.23-6.63 1.93-14 1.18-20.68-.38-11.56-2.67-23.26-10.64-24.12-23.49C40.16 8.76 48.19-2 58.26.31c3.07.7 6.86 3.9 4.83 7.43A3.15 3.15 0 0 1 57.27 7c-.07-.23.29-.33.36-.1q6.25-5.41.53-6.2A11.86 11.86 0 0 0 53 .77a14.82 14.82 0 0 0-6.8 3.85 16.73 16.73 0 0 0-5.1 12.51c.26 10.34 8.43 18.35 17.54 22 8.39 3.35 19.38 5 28 1.93 6.31-2.2 11.47-6.71 16.75-10.65 6.3-4.7 20.24-13.32 26.88-4.14 2.24 3.1 1.2 7.13-1.57 9.52a9.34 9.34 0 0 1-6.67 2 12.6 12.6 0 0 1-4.4-1c-7.33-3.31-2.49-4.71-8-3.4-.24.06-.34-.31-.1-.36z"/><path class="cls-14" d="M62.71 33c-2.11-.5-11.29-3.19-10.54 2.23a2.05 2.05 0 0 0 3.89.82c.1-.17-.1-.33-.26-.26-3 1.4-6.58 2.37-9.76.92-3.74-1.71-5.73-5.18-4-9 2.51-5.42 9.25-5.59 14.37-4 6 1.88 11 6.08 15.95 9.83 4.37 3.31 9 6.68 14.32 8.23 6.63 1.93 14 1.18 20.68-.38 11.53-2.71 23.22-10.68 24.08-23.53C132.09 8.76 124.06-2 114 .31c-3.07.7-6.86 3.9-4.83 7.43A3.15 3.15 0 0 0 115 7c.07-.23-.29-.33-.36-.1q-6.25-5.41-.53-6.2a11.86 11.86 0 0 1 5.12.09 14.82 14.82 0 0 1 6.85 3.85 16.73 16.73 0 0 1 5.1 12.51c-.26 10.34-8.43 18.35-17.54 22-8.39 3.35-19.38 5-28 1.93-6.31-2.2-11.47-6.71-16.75-10.65-6.3-4.7-20.24-13.32-26.88-4.14-2.24 3.1-1.2 7.13 1.57 9.52a9.34 9.34 0 0 0 6.67 2 12.6 12.6 0 0 0 4.4-1c7.33-3.31 2.49-4.71 8-3.4.24.06.34-.31.1-.36z"/></g></g></svg>