<svg xmlns="http://www.w3.org/2000/svg" xmlns:xlink="http://www.w3.org/1999/xlink" viewBox="0 0 221.11 40.2"><defs><style>.cls-1{fill:url(#linear-gradient)}.cls-2{fill:url(#linear-gradient-2)}</style><linearGradient id="linear-gradient" x1=".23" y1="20.1" x2="220.85" y2="20.1" gradientTransform="matrix(-1 0 0 1 221.11 0)" gradientUnits="userSpaceOnUse"><stop offset="0" stop-color="#f5e8d4"/><stop offset=".55" stop-color="#d4c39f"/><stop offset=".61" stop-color="#d2bd8d"/><stop offset=".7" stop-color="#cfb472"/><stop offset=".8" stop-color="#cdad5f"/><stop offset=".9" stop-color="#cba954"/><stop offset="1" stop-color="#cba850"/><stop offset="1" stop-color="#f3903f"/><stop offset="1" stop-color="#ed683c" stop-opacity="0"/><stop offset="1" stop-color="#cba850"/></linearGradient><linearGradient id="linear-gradient-2" x1=".23" y1="20.1" x2="220.85" y2="20.1" xlink:href="#linear-gradient"/></defs><title>Top2</title><g id="Layer_2" data-name="Layer 2"><g id="Layer_1-2" data-name="Layer 1"><path class="cls-1" d="M14.15 29c-2.45 9.9-18.48 5.15-13-4.48 2.45-4.31 7.74-5.87 11.33-2 2.21 2.38 3 5.7 4.51 8.48 3.25 5.9 10.77 8.74 16.35 3.73 4.21-3.78 4.05-10.7 1-15.11-1.66-2.37-5.39-5.05-8.52-3.74L24 22.65l2.64-.28s-2.17.19-2.52.16a10.21 10.21 0 0 1-9.24-10.81c.72-14.37 22.3-13.17 29.93-5.41 6.82 6.94 1.59 17.72 7.7 24.8 7.55 8.75 19.9 4.76 27.88-.8s14.9-12 23.41-16.72a106.93 106.93 0 0 1 24-9.78 108.69 108.69 0 0 1 52.58-1.11 103.17 103.17 0 0 1 24.3 8.9c6.22 3.22 13.81 7.35 15.89 14.61 1.92 6.71-1.32 13.06-8.49 13.86-8 .89-16.24-2.56-22.15-7.82-3.5-3.11-12.45-13-8.85-18.11 1.89-2.7 6.71-2.71 9.61-2.88a44.14 44.14 0 0 1 17 2.47.29.29 0 0 1 .2.35 8.43 8.43 0 0 1-3.49 5.9c-.29.22-.57-.27-.29-.49 6.54-5 .85-6.26-3.21-7a42.22 42.22 0 0 0-10.17-.64c-1.72.1-4.94-.21-6.24.89L183 15.81q-2.76 2.81-.37 5.75a32.22 32.22 0 0 0 5.68 8.29c6.3 6.68 30.34 18.13 32.14 1.52 1.41-13-15.89-19.81-25.68-23.66a104.38 104.38 0 0 0-32.37-7 107.79 107.79 0 0 0-62.25 15.68C87.91 23.94 69.61 46 53.82 33.17 50.31 30.33 49 26.41 48.66 22c-.66-7.49-.75-14.2-8.21-18.16C34.9.89 25.94 0 20.32 3.26c-9.5 5.56-3.78 21.45 7.32 18.22.19-.06.43.14.35.35-1.93 4.83-10-1.39-4.52-5.49 7.1-5.34 13.85 4.91 13.64 11.1C36.81 35.9 27 41 20 35.84c-4.76-3.54-4.44-11.58-9.73-14.38-6.67-3.53-13.72 8-6.75 11.92 4 2.25 9-.28 10.07-4.49a.28.28 0 0 1 .55.15z"/><path class="cls-2" d="M207 29c2.45 9.9 18.48 5.15 13-4.48-2.45-4.31-7.74-5.87-11.33-2-2.21 2.38-3 5.7-4.51 8.48-3.25 5.9-10.77 8.74-16.35 3.73-4.21-3.78-4.05-10.7-1-15.11 1.66-2.37 5.39-5.05 8.52-3.74l1.79 6.75-2.64-.28s2.17.19 2.52.16a10.21 10.21 0 0 0 9.24-10.81C205.53-2.65 184-1.45 176.32 6.31c-6.82 6.94-1.59 17.72-7.7 24.8-7.55 8.75-19.9 4.76-27.88-.8s-14.9-12-23.41-16.72a106.93 106.93 0 0 0-24-9.78 108.69 108.69 0 0 0-52.6-1.11 103.17 103.17 0 0 0-24.3 8.9C10.21 14.82 2.63 18.94.54 26.2-1.38 32.91 1.86 39.27 9 40.06c8 .89 16.24-2.56 22.15-7.82 3.5-3.11 12.45-13 8.85-18.11-1.89-2.7-6.71-2.71-9.61-2.88a44.14 44.14 0 0 0-17 2.47.29.29 0 0 0-.2.35A8.43 8.43 0 0 0 16.77 20c.29.22.57-.27.29-.49-6.54-5-.85-6.26 3.21-7a42.22 42.22 0 0 1 10.17-.64c1.72.1 4.94-.21 6.24.89l1.48 3.1q2.76 2.81.37 5.75a32.22 32.22 0 0 1-5.68 8.29C26.55 36.52 2.5 48 .7 31.37c-1.41-13 15.9-19.82 25.69-23.66a104.38 104.38 0 0 1 32.37-7A107.79 107.79 0 0 1 121 16.41c12.2 7.53 30.5 29.59 46.29 16.76 3.51-2.84 4.79-6.76 5.16-11.13.63-7.53.76-14.24 8.21-18.2 5.55-3 14.51-3.87 20.13-.58 9.5 5.56 3.78 21.45-7.32 18.22-.19-.06-.43.14-.35.35 1.93 4.83 10-1.39 4.52-5.49-7.1-5.34-13.85 4.91-13.64 11.1.3 8.46 10.13 13.58 17.1 8.39 4.76-3.54 4.44-11.58 9.73-14.38 6.67-3.53 13.72 8 6.75 11.92-4 2.25-9-.28-10.07-4.49a.28.28 0 0 0-.51.12z"/><path class="cls-2" d="M207 29c2.45 9.9 18.48 5.15 13-4.48-2.45-4.31-7.74-5.87-11.33-2-2.21 2.38-3 5.7-4.51 8.48-3.25 5.9-10.77 8.74-16.35 3.73-4.21-3.78-4.05-10.7-1-15.11 1.66-2.37 5.39-5.05 8.52-3.74l1.79 6.75-2.64-.28s2.17.19 2.52.16a10.21 10.21 0 0 0 9.24-10.81C205.53-2.65 184-1.45 176.32 6.31c-6.82 6.94-1.59 17.72-7.7 24.8-7.55 8.75-19.9 4.76-27.88-.8s-14.9-12-23.41-16.72a106.93 106.93 0 0 0-24-9.78 108.69 108.69 0 0 0-52.6-1.11 103.17 103.17 0 0 0-24.3 8.9C10.21 14.82 2.63 18.94.54 26.2-1.38 32.91 1.86 39.27 9 40.06c8 .89 16.24-2.56 22.15-7.82 3.5-3.11 12.45-13 8.85-18.11-1.89-2.7-6.71-2.71-9.61-2.88a44.14 44.14 0 0 0-17 2.47.29.29 0 0 0-.2.35A8.43 8.43 0 0 0 16.77 20c.29.22.57-.27.29-.49-6.54-5-.85-6.26 3.21-7a42.22 42.22 0 0 1 10.17-.64c1.72.1 4.94-.21 6.24.89l1.48 3.1q2.76 2.81.37 5.75a32.22 32.22 0 0 1-5.68 8.29C26.55 36.52 2.5 48 .7 31.37c-1.41-13 15.9-19.82 25.69-23.66a104.38 104.38 0 0 1 32.37-7A107.79 107.79 0 0 1 121 16.41c12.2 7.53 30.5 29.59 46.29 16.76 3.51-2.84 4.79-6.76 5.16-11.13.63-7.53.76-14.24 8.21-18.2 5.55-3 14.51-3.87 20.13-.58 9.5 5.56 3.78 21.45-7.32 18.22-.19-.06-.43.14-.35.35 1.93 4.83 10-1.39 4.52-5.49-7.1-5.34-13.85 4.91-13.64 11.1.3 8.46 10.13 13.58 17.1 8.39 4.76-3.54 4.44-11.58 9.73-14.38 6.67-3.53 13.72 8 6.75 11.92-4 2.25-9-.28-10.07-4.49a.28.28 0 0 0-.51.12z"/><path class="cls-1" d="M14.15 29c-2.45 9.9-18.48 5.15-13-4.48 2.45-4.31 7.74-5.87 11.33-2 2.21 2.38 3 5.7 4.51 8.48 3.25 5.9 10.77 8.74 16.35 3.73 4.21-3.78 4.05-10.7 1-15.11-1.66-2.37-5.39-5.05-8.52-3.74L24 22.65l2.64-.28s-2.17.19-2.52.16a10.21 10.21 0 0 1-9.24-10.81c.72-14.37 22.3-13.17 29.93-5.41 6.82 6.94 1.59 17.72 7.7 24.8 7.55 8.75 19.9 4.76 27.88-.8s14.9-12 23.41-16.72a106.93 106.93 0 0 1 24-9.78 108.69 108.69 0 0 1 52.58-1.11 103.17 103.17 0 0 1 24.3 8.9c6.22 3.22 13.81 7.35 15.89 14.61 1.92 6.71-1.32 13.06-8.49 13.86-8 .89-16.24-2.56-22.15-7.82-3.5-3.11-12.45-13-8.85-18.11 1.89-2.7 6.71-2.71 9.61-2.88a44.14 44.14 0 0 1 17 2.47.29.29 0 0 1 .2.35 8.43 8.43 0 0 1-3.49 5.9c-.29.22-.57-.27-.29-.49 6.54-5 .85-6.26-3.21-7a42.22 42.22 0 0 0-10.17-.64c-1.72.1-4.94-.21-6.24.89L183 15.81q-2.76 2.81-.37 5.75a32.22 32.22 0 0 0 5.68 8.29c6.3 6.68 30.34 18.13 32.14 1.52 1.41-13-15.89-19.81-25.68-23.66a104.38 104.38 0 0 0-32.37-7 107.79 107.79 0 0 0-62.25 15.68C87.91 23.94 69.61 46 53.82 33.17 50.31 30.33 49 26.41 48.66 22c-.66-7.49-.75-14.2-8.21-18.16C34.9.89 25.94 0 20.32 3.26c-9.5 5.56-3.78 21.45 7.32 18.22.19-.06.43.14.35.35-1.93 4.83-10-1.39-4.52-5.49 7.1-5.34 13.85 4.91 13.64 11.1C36.81 35.9 27 41 20 35.84c-4.76-3.54-4.44-11.58-9.73-14.38-6.67-3.53-13.72 8-6.75 11.92 4 2.25 9-.28 10.07-4.49a.28.28 0 0 1 .55.15z"/><path class="cls-1" d="M14.15 29c-2.45 9.9-18.48 5.15-13-4.48 2.45-4.31 7.74-5.87 11.33-2 2.21 2.38 3 5.7 4.51 8.48 3.25 5.9 10.77 8.74 16.35 3.73 4.21-3.78 4.05-10.7 1-15.11-1.66-2.37-5.39-5.05-8.52-3.74L24 22.65l2.64-.28s-2.17.19-2.52.16a10.21 10.21 0 0 1-9.24-10.81c.72-14.37 22.3-13.17 29.93-5.41 6.82 6.94 1.59 17.72 7.7 24.8 7.55 8.75 19.9 4.76 27.88-.8s14.9-12 23.41-16.72a106.93 106.93 0 0 1 24-9.78 108.69 108.69 0 0 1 52.58-1.11 103.17 103.17 0 0 1 24.3 8.9c6.22 3.22 13.81 7.35 15.89 14.61 1.92 6.71-1.32 13.06-8.49 13.86-8 .89-16.24-2.56-22.15-7.82-3.5-3.11-12.45-13-8.85-18.11 1.89-2.7 6.71-2.71 9.61-2.88a44.14 44.14 0 0 1 17 2.47.29.29 0 0 1 .2.35 8.43 8.43 0 0 1-3.49 5.9c-.29.22-.57-.27-.29-.49 6.54-5 .85-6.26-3.21-7a42.22 42.22 0 0 0-10.17-.64c-1.72.1-4.94-.21-6.24.89L183 15.81q-2.76 2.81-.37 5.75a32.22 32.22 0 0 0 5.68 8.29c6.3 6.68 30.34 18.13 32.14 1.52 1.41-13-15.89-19.81-25.68-23.66a104.38 104.38 0 0 0-32.37-7 107.79 107.79 0 0 0-62.25 15.68C87.91 23.94 69.61 46 53.82 33.17 50.31 30.33 49 26.41 48.66 22c-.66-7.49-.75-14.2-8.21-18.16C34.9.89 25.94 0 20.32 3.26c-9.5 5.56-3.78 21.45 7.32 18.22.19-.06.43.14.35.35-1.93 4.83-10-1.39-4.52-5.49 7.1-5.34 13.85 4.91 13.64 11.1C36.81 35.9 27 41 20 35.84c-4.76-3.54-4.44-11.58-9.73-14.38-6.67-3.53-13.72 8-6.75 11.92 4 2.25 9-.28 10.07-4.49a.28.28 0 0 1 .55.15z"/><path class="cls-2" d="M207 29c2.45 9.9 18.48 5.15 13-4.48-2.45-4.31-7.74-5.87-11.33-2-2.21 2.38-3 5.7-4.51 8.48-3.25 5.9-10.77 8.74-16.35 3.73-4.21-3.78-4.05-10.7-1-15.11 1.66-2.37 5.39-5.05 8.52-3.74l1.79 6.75-2.64-.28s2.17.19 2.52.16a10.21 10.21 0 0 0 9.24-10.81C205.53-2.65 184-1.45 176.32 6.31c-6.82 6.94-1.59 17.72-7.7 24.8-7.55 8.75-19.9 4.76-27.88-.8s-14.9-12-23.41-16.72a106.93 106.93 0 0 0-24-9.78 108.69 108.69 0 0 0-52.6-1.11 103.17 103.17 0 0 0-24.3 8.9C10.21 14.82 2.63 18.94.54 26.2-1.38 32.91 1.86 39.27 9 40.06c8 .89 16.24-2.56 22.15-7.82 3.5-3.11 12.45-13 8.85-18.11-1.89-2.7-6.71-2.71-9.61-2.88a44.14 44.14 0 0 0-17 2.47.29.29 0 0 0-.2.35A8.43 8.43 0 0 0 16.77 20c.29.22.57-.27.29-.49-6.54-5-.85-6.26 3.21-7a42.22 42.22 0 0 1 10.17-.64c1.72.1 4.94-.21 6.24.89l1.48 3.1q2.76 2.81.37 5.75a32.22 32.22 0 0 1-5.68 8.29C26.55 36.52 2.5 48 .7 31.37c-1.41-13 15.9-19.82 25.69-23.66a104.38 104.38 0 0 1 32.37-7A107.79 107.79 0 0 1 121 16.41c12.2 7.53 30.5 29.59 46.29 16.76 3.51-2.84 4.79-6.76 5.16-11.13.63-7.53.76-14.24 8.21-18.2 5.55-3 14.51-3.87 20.13-.58 9.5 5.56 3.78 21.45-7.32 18.22-.19-.06-.43.14-.35.35 1.93 4.83 10-1.39 4.52-5.49-7.1-5.34-13.85 4.91-13.64 11.1.3 8.46 10.13 13.58 17.1 8.39 4.76-3.54 4.44-11.58 9.73-14.38 6.67-3.53 13.72 8 6.75 11.92-4 2.25-9-.28-10.07-4.49a.28.28 0 0 0-.51.12z"/></g></g></svg>