<svg version="1.1" id="Capa_1" xmlns="http://www.w3.org/2000/svg" xmlns:xlink="http://www.w3.org/1999/xlink" x="0px" y="0px"
	 viewBox="0 0 375.457 375.457" style="enable-background:new 0 0 375.457 375.457;" xml:space="preserve">
<g>
	<g>
		<g>
			<path style="fill:#ffffcd;" d="M106.8,360.457l-5.447-9.652c-1.707-3.021-1.115-6.82,1.426-9.182l13.953-12.959H95.413
				c-2.537,0-4.904-1.283-6.287-3.41c-1.385-2.127-1.598-4.809-0.57-7.129l23.916-53.949c-15.031,6.396-37.84,16.037-60.875,25.527
				c-27.875,11.482-32.578,24.705-32.578,50.002v20.752h50.068v-13.711c0-4.142,3.357-7.5,7.5-7.5s7.5,3.358,7.5,7.5v13.711H106.8z"
				/>
			<path style="fill:#ffffcd;" d="M323.86,289.703c-23.037-9.49-45.848-19.131-60.879-25.527l23.914,53.949
				c1.029,2.32,0.814,5.002-0.568,7.129c-1.385,2.127-3.75,3.41-6.287,3.41h-21.314l13.951,12.959
				c2.543,2.361,3.133,6.16,1.428,9.182l-5.449,9.652h22.713v-13.711c0-4.142,3.357-7.5,7.5-7.5s7.5,3.358,7.5,7.5v13.711h50.07
				v-20.752C356.439,314.408,351.735,301.186,323.86,289.703z"/>
			<polygon style="fill:#ffffcd;" points="139.53,235.291 139.53,265.586 170.599,248.916 			"/>
			<polygon style="fill:#ffffcd;" points="235.927,235.291 204.855,248.916 235.927,265.586 			"/>
			<path style="fill:#FF92B1;" d="M329.573,275.834c-39.229-16.16-78.631-33.096-78.647-33.102v-18.92
				c0-2.533-1.277-4.895-3.398-6.279c-2.117-1.385-4.795-1.605-7.113-0.59l-12.209,5.355v-16.131
				c15.186-10.279,27.766-26.307,36.303-46.338c0.717,0.076,1.434,0.125,2.148,0.125c11.088,0,21.631-9.096,25.381-22.797
				c4.344-15.9-2.35-31.115-15.236-34.635c-0.055-0.016-0.108-0.021-0.162-0.035c1.406-34.742-5.955-61.037-21.924-78.229
				C239.761,8.162,217.222,0,187.728,0c-29.496,0-52.033,8.162-66.988,24.26c-15.969,17.191-23.33,43.486-21.926,78.229
				c-0.053,0.014-0.106,0.02-0.16,0.035c-12.887,3.52-19.58,18.734-15.234,34.637c3.748,13.701,14.289,22.795,25.379,22.795
				c0.715,0,1.432-0.049,2.148-0.125c8.537,20.031,21.117,36.059,36.303,46.338v16.129l-12.207-5.354
				c-2.32-1.018-4.998-0.795-7.115,0.59c-2.119,1.385-3.396,3.746-3.396,6.279v18.92c-0.149,0.053-39.416,16.939-78.648,33.102
				c-35.014,14.424-41.863,34.342-41.863,63.871v28.252c0,4.143,3.357,7.5,7.5,7.5h352.42c4.143,0,7.5-3.357,7.5-7.5v-28.252
				C371.439,310.176,364.587,290.258,329.573,275.834z M275.364,118.598c2.566,2.713,3.932,8.277,2.203,14.605
				c-1.418,5.184-4.361,8.875-7.353,10.609C272.532,135.846,274.274,127.414,275.364,118.598z M97.888,133.205
				c-1.729-6.328-0.363-11.893,2.203-14.605c1.09,8.816,2.83,17.248,5.15,25.213C102.249,142.078,99.306,138.387,97.888,133.205z
				 M235.927,235.291v30.295l-31.072-16.67L235.927,235.291z M162.249,214.072c8.045,3.133,16.588,4.813,25.479,4.813
				c8.891,0,17.434-1.68,25.479-4.813v14.803l-25.479,11.174l-25.479-11.174V214.072z M187.728,15
				c25.51,0,43.828,6.369,55.998,19.471c7.607,8.188,12.824,19.215,15.635,32.967c-29.766,0.635-57.391-6.525-82.125-21.348
				c-16.688-10.002-26.664-20.484-29.324-23.455C158.519,17.518,171.702,15,187.728,15z M131.728,34.471
				c1.143-1.23,2.359-2.381,3.611-3.494c0.078,0.109,0.152,0.221,0.238,0.324c0.309,0.379,5.266,6.381,14.744,14.158
				c-11.795,21.957-27.875,26.818-35.26,27.875C117.501,56.809,123.063,43.797,131.728,34.471z M114.2,108.891
				c-0.529-7.193-0.682-13.977-0.467-20.355c8.785-0.602,32.277-5.02,48.75-34.051c2.037,1.367,4.182,2.742,6.447,4.113
				c18.422,11.147,48.021,23.885,87.055,23.885c1.781,0,3.588-0.035,5.408-0.09c0.609,8.109,0.564,16.947-0.141,26.498
				c-4.057,55.045-34.979,94.994-73.525,94.994C149.181,203.885,118.259,163.936,114.2,108.891z M139.53,235.291l31.068,13.625
				l-31.068,16.67V235.291z M101.353,350.805l5.447,9.652H84.087v-13.711c0-4.142-3.357-7.5-7.5-7.5s-7.5,3.358-7.5,7.5v13.711
				H19.019v-20.752c0-25.297,4.703-38.52,32.578-50.002c23.035-9.49,45.844-19.131,60.875-25.527l-23.916,53.949
				c-1.027,2.32-0.814,5.002,0.57,7.129c1.383,2.127,3.75,3.41,6.287,3.41h21.318l-13.953,12.959
				C100.237,343.984,99.646,347.783,101.353,350.805z M124.024,360.457l-6.701-11.871l23.607-21.926
				c2.26-2.1,3.004-5.367,1.877-8.238c-1.127-2.869-3.896-4.758-6.98-4.758H106.94l17.59-39.676v4.133
				c0,2.637,1.385,5.082,3.648,6.436c1.184,0.709,2.518,1.064,3.852,1.064c1.217,0,2.436-0.297,3.545-0.892l0.775-0.414
				l39.096,76.143H124.024z M149.571,277.221l38.154-20.471l38.158,20.471l-38.156,74.316L149.571,277.221z M251.431,360.457
				h-51.422l39.096-76.143l0.775,0.416c1.109,0.594,2.328,0.891,3.547,0.891c1.334,0,2.666-0.355,3.85-1.064
				c2.264-1.354,3.65-3.799,3.65-6.436v-4.127l17.584,39.67H239.63c-3.084,0-5.854,1.889-6.981,4.758
				c-1.129,2.871-0.383,6.139,1.875,8.238l23.607,21.926L251.431,360.457z M356.439,360.457h-50.07v-13.711
				c0-4.142-3.357-7.5-7.5-7.5s-7.5,3.358-7.5,7.5v13.711h-22.713l5.449-9.652c1.705-3.021,1.115-6.82-1.428-9.182l-13.951-12.959
				h21.314c2.537,0,4.902-1.283,6.287-3.41c1.383-2.127,1.598-4.809,0.568-7.129l-23.914-53.949
				c15.031,6.396,37.842,16.037,60.879,25.527c27.875,11.482,32.578,24.705,32.578,50.002V360.457z"/>
		</g>
		<g>
			<g>
				<path style="fill:#FF92B1;" d="M166.853,127.992h-24.059c-4.143,0-7.5-3.357-7.5-7.5s3.357-7.5,7.5-7.5h24.059
					c4.143,0,7.5,3.357,7.5,7.5S170.995,127.992,166.853,127.992z"/>
			</g>
			<g>
				<path style="fill:#FF92B1;" d="M232.661,127.992h-24.059c-4.143,0-7.5-3.357-7.5-7.5s3.357-7.5,7.5-7.5h24.059
					c4.143,0,7.5,3.357,7.5,7.5S236.804,127.992,232.661,127.992z"/>
			</g>
		</g>
		<g>
			<path style="fill:#FF92B1;" d="M187.728,176.445c-11.99,0-21.746-8.295-21.746-18.49c0-4.143,3.357-7.5,7.5-7.5
				c4.142,0,7.5,3.357,7.5,7.5c0,1.23,2.56,3.49,6.746,3.49c4.186,0,6.746-2.26,6.746-3.49c0-4.143,3.357-7.5,7.5-7.5
				c4.143,0,7.5,3.357,7.5,7.5C209.474,168.15,199.72,176.445,187.728,176.445z"/>
		</g>
	</g>
</g>
<g>
</g>
<g>
</g>
<g>
</g>
<g>
</g>
<g>
</g>
<g>
</g>
<g>
</g>
<g>
</g>
<g>
</g>
<g>
</g>
<g>
</g>
<g>
</g>
<g>
</g>
<g>
</g>
<g>
</g>
</svg>
